<svg width="538" height="400" viewBox="0 0 538 400" fill="none" xmlns="http://www.w3.org/2000/svg">
<ellipse opacity="0.2" rx="202.277" ry="202.277" transform="matrix(0.869251 0.494372 -0.869251 0.494372 269 210)" fill="#D6E4F7"/>
<path d="M81.9665 94C76.227 90.6863 76.227 85.3137 81.9665 82L116.608 62C122.347 58.6863 131.653 58.6863 137.392 62L172.033 82C177.773 85.3137 177.773 90.6863 172.033 94L137.392 114C131.653 117.314 122.347 117.314 116.608 114L81.9665 94Z" fill="#D6E4F7"/>
<path d="M82.8325 82.5L117.474 62.5L115.742 61.5L81.1005 81.5L82.8325 82.5ZM136.526 62.5L171.167 82.5L172.899 81.5L138.258 61.5L136.526 62.5ZM171.167 93.5L136.526 113.5L138.258 114.5L172.899 94.5L171.167 93.5ZM117.474 113.5L82.8325 93.5L81.1005 94.5L115.742 114.5L117.474 113.5ZM136.526 113.5C131.265 116.538 122.735 116.538 117.474 113.5L115.742 114.5C121.959 118.09 132.04 118.09 138.258 114.5L136.526 113.5ZM171.167 82.5C176.428 85.5376 176.428 90.4624 171.167 93.5L172.899 94.5C179.117 90.9101 179.117 85.0899 172.899 81.5L171.167 82.5ZM117.474 62.5C122.735 59.4624 131.265 59.4624 136.526 62.5L138.258 61.5C132.04 57.9101 121.959 57.9101 115.742 61.5L117.474 62.5ZM81.1005 81.5C74.8827 85.0899 74.8827 90.9101 81.1005 94.5L82.8325 93.5C77.5713 90.4624 77.5713 85.5376 82.8325 82.5L81.1005 81.5Z" fill="white"/>
<g filter="url(#filter0_d_2581_3621)">
<rect width="64" height="64" rx="12" transform="matrix(0.866025 -0.5 0.866025 0.5 213.574 88)" fill="#D6E4F7"/>
</g>
<g filter="url(#filter1_ii_2581_3621)">
<path fill-rule="evenodd" clip-rule="evenodd" d="M219.664 87.8578C219.6 90.0765 221.034 92.3069 223.967 93.9999L258.608 114C264.347 117.314 273.653 117.314 279.392 114L314.033 93.9999C316.903 92.3431 318.338 90.1715 318.338 87.9999H318.34V85.9999H317.926C317.313 84.5341 316.015 83.1443 314.033 81.9999L279.392 61.9999C273.653 58.6862 264.347 58.6862 258.608 61.9999L223.967 81.9999C221.985 83.1443 220.687 84.5341 220.074 85.9999H219.664L219.664 87.8578Z" fill="url(#paint0_linear_2581_3621)"/>
</g>
<path d="M223.967 92C218.227 88.6863 218.227 83.3137 223.967 80L258.608 60C264.347 56.6863 273.653 56.6863 279.392 60L314.033 80C319.773 83.3137 319.773 88.6863 314.033 92L279.392 112C273.653 115.314 264.347 115.314 258.608 112L223.967 92Z" fill="white"/>
<g clip-path="url(#clip0_2581_3621)">
<path d="M244.936 83.8934L265.351 72.1066C267.36 70.9467 270.632 70.9422 272.649 72.1067L293.064 83.8936C295.074 85.0539 295.081 86.9422 293.064 88.1066L272.649 99.8934C270.64 101.053 267.369 101.058 265.352 99.894L244.926 88.1012C242.919 86.9422 242.917 85.0588 244.936 83.8934Z" fill="#5468FF"/>
<path d="M264.218 79.9048L263.268 79.3563C262.603 78.9726 261.526 78.9729 260.862 79.3569L258.058 80.9762C257.739 81.161 257.559 81.411 257.559 81.6714C257.559 81.9317 257.737 82.181 258.056 82.3646L259.032 82.928C259.141 82.9909 259.317 82.9761 259.401 82.8984C259.966 82.3082 260.672 81.7669 261.499 81.2906C262.299 80.8286 263.199 80.434 264.175 80.1134C264.205 80.1029 264.231 80.0886 264.25 80.0715C264.269 80.0544 264.281 80.0351 264.285 80.0149C264.289 79.9948 264.285 79.9744 264.274 79.9553C264.262 79.9362 264.243 79.9189 264.218 79.9048V79.9048ZM257.775 85.0605L256.816 85.0607C256.594 85.0607 256.373 85.0861 256.166 85.1355C255.96 85.1849 255.773 85.2572 255.615 85.3485C255.457 85.4397 255.331 85.5479 255.246 85.667C255.16 85.7861 255.116 85.9137 255.116 86.0424L255.114 86.703C255.114 86.8321 255.157 86.9599 255.242 87.0791C255.327 87.1984 255.452 87.3066 255.61 87.3978C255.768 87.4889 255.955 87.561 256.162 87.6101C256.368 87.6592 256.59 87.6843 256.813 87.6839L257.756 87.6837C257.906 87.6832 257.999 87.61 257.991 87.5279C257.887 87.1472 257.834 86.7624 257.832 86.3767C257.831 85.9882 257.885 85.6001 257.994 85.2164C258.028 85.1388 257.917 85.0658 257.775 85.0605V85.0605ZM265.91 83.8477L270.021 86.2209C270.138 86.2887 270.35 86.2642 270.399 86.1674L272.163 82.9653C272.205 82.8935 272.128 82.8202 272.004 82.7958C270.949 82.6278 269.836 82.6188 268.77 82.7698C267.705 82.9208 266.724 83.2266 265.92 83.6582C265.835 83.7068 265.818 83.7942 265.911 83.8474L265.91 83.8477ZM275.813 89.5647C272.766 91.324 267.818 91.326 264.775 89.5694C261.733 87.8128 261.737 84.9565 264.784 83.1972C267.833 81.4373 272.779 81.4353 275.821 83.1919C278.864 84.9484 278.87 87.7999 275.813 89.5647ZM262.465 81.8582C258.137 84.3568 258.132 88.4072 262.46 90.9059C266.789 93.4053 273.797 93.3979 278.125 90.8992C282.453 88.4006 282.457 84.3499 278.128 81.8508C273.799 79.3515 266.801 79.3546 262.465 81.8582" fill="white"/>
</g>
<path d="M224.4 80.25L259.041 60.25L258.175 59.75L223.534 79.75L224.4 80.25ZM278.959 60.25L313.6 80.25L314.466 79.75L279.825 59.75L278.959 60.25ZM313.6 91.75L278.959 111.75L279.825 112.25L314.466 92.25L313.6 91.75ZM259.041 111.75L224.4 91.75L223.534 92.25L258.175 112.25L259.041 111.75ZM278.959 111.75C273.459 114.926 264.541 114.926 259.041 111.75L258.175 112.25C264.153 115.702 273.847 115.702 279.825 112.25L278.959 111.75ZM313.6 80.25C319.101 83.4256 319.101 88.5744 313.6 91.75L314.466 92.25C320.445 88.7982 320.445 83.2018 314.466 79.75L313.6 80.25ZM259.041 60.25C264.541 57.0744 273.459 57.0744 278.959 60.25L279.825 59.75C273.847 56.2982 264.153 56.2982 258.175 59.75L259.041 60.25ZM223.534 79.75C217.555 83.2018 217.555 88.7982 223.534 92.25L224.4 91.75C218.899 88.5744 218.899 83.4256 224.4 80.25L223.534 79.75Z" fill="#D6E4F7"/>
<path d="M365.967 94C360.227 90.6863 360.227 85.3137 365.967 82L400.608 62C406.347 58.6863 415.653 58.6863 421.392 62L456.033 82C461.773 85.3137 461.773 90.6863 456.033 94L421.392 114C415.653 117.314 406.347 117.314 400.608 114L365.967 94Z" fill="#D6E4F7"/>
<path d="M366.833 82.5L401.474 62.5L399.742 61.5L365.1 81.5L366.833 82.5ZM420.526 62.5L455.167 82.5L456.899 81.5L422.258 61.5L420.526 62.5ZM455.167 93.5L420.526 113.5L422.258 114.5L456.899 94.5L455.167 93.5ZM401.474 113.5L366.833 93.5L365.1 94.5L399.742 114.5L401.474 113.5ZM420.526 113.5C415.265 116.538 406.735 116.538 401.474 113.5L399.742 114.5C405.959 118.09 416.04 118.09 422.258 114.5L420.526 113.5ZM455.167 82.5C460.428 85.5376 460.428 90.4624 455.167 93.5L456.899 94.5C463.117 90.9101 463.117 85.0899 456.899 81.5L455.167 82.5ZM401.474 62.5C406.735 59.4624 415.265 59.4624 420.526 62.5L422.258 61.5C416.04 57.9101 405.959 57.9101 399.742 61.5L401.474 62.5ZM365.1 81.5C358.883 85.0899 358.883 90.9101 365.1 94.5L366.833 93.5C361.571 90.4624 361.571 85.5376 366.833 82.5L365.1 81.5Z" fill="white"/>
<g filter="url(#filter2_d_2581_3621)">
<rect width="64" height="64" rx="12" transform="matrix(0.866025 -0.5 0.866025 0.5 0.574341 129)" fill="#D6E4F7"/>
</g>
<g filter="url(#filter3_ii_2581_3621)">
<path fill-rule="evenodd" clip-rule="evenodd" d="M6.66416 128.858C6.60017 131.076 8.03436 133.307 10.9667 135L45.6078 155C51.3473 158.314 60.6529 158.314 66.3924 155L101.033 135C103.903 133.343 105.338 131.172 105.338 129H105.34V127H104.926C104.313 125.534 103.015 124.144 101.033 123L66.3924 103C60.6529 99.6862 51.3473 99.6862 45.6078 103L10.9667 123C8.98471 124.144 7.68713 125.534 7.07401 127H6.66416L6.66416 128.858Z" fill="url(#paint1_linear_2581_3621)"/>
</g>
<path d="M10.9666 133C5.22713 129.686 5.22713 124.314 10.9666 121L45.6077 101C51.3472 97.6863 60.6528 97.6863 66.3923 101L101.033 121C106.773 124.314 106.773 129.686 101.033 133L66.3923 153C60.6528 156.314 51.3472 156.314 45.6077 153L10.9666 133Z" fill="white"/>
<g clip-path="url(#clip1_2581_3621)">
<path d="M67.135 117.429C64.1536 115.708 59.2751 115.708 56.2938 117.429C53.719 118.916 53.9223 119.972 51.5507 121.732C50.1278 122.788 49.3148 122.241 47.4853 123.297C46.1302 124.079 45.4526 125.253 45.4526 125.253C45.4526 125.253 42.6068 125.096 42.0647 125.644C41.3871 126.427 45.4526 127.6 45.4526 127.6C45.4526 127.6 46.1301 128.774 46.1301 130.338C46.1301 131.512 44.3007 133.194 43.4198 134.094C37.2539 130.456 37.2539 124.588 43.4876 120.989C46.1979 119.424 49.6535 118.524 53.2447 118.329C53.5835 117.977 54.1255 117.585 54.6676 117.194C50.1278 117.233 45.5881 118.211 42.0647 120.246C35.0857 124.275 35.0857 130.925 42.1325 134.994C49.1792 139.062 60.6303 139.023 67.677 134.955C73.843 131.395 74.6561 125.918 69.9808 121.889C69.7098 122.358 69.4387 122.827 69.1677 123.297C72.2168 126.7 71.4715 130.964 66.7284 133.938C66.2541 132.881 65.6443 130.73 65.7121 128.422C65.9153 123.297 72.2845 120.402 67.135 117.429ZM52.5671 125.057C52.0251 125.37 51.0764 125.37 50.5344 125.057C49.9923 124.744 49.9923 124.197 50.5344 123.884C51.0764 123.571 52.0251 123.571 52.5671 123.884C53.1092 124.197 53.1092 124.744 52.5671 125.057Z" fill="#3B474F"/>
</g>
<path d="M11.3997 121.25L46.0407 101.25L45.1747 100.75L10.5336 120.75L11.3997 121.25ZM65.9593 101.25L100.6 121.25L101.466 120.75L66.8253 100.75L65.9593 101.25ZM100.6 132.75L65.9593 152.75L66.8253 153.25L101.466 133.25L100.6 132.75ZM46.0407 152.75L11.3997 132.75L10.5336 133.25L45.1746 153.25L46.0407 152.75ZM65.9593 152.75C60.4589 155.926 51.541 155.926 46.0407 152.75L45.1746 153.25C51.1533 156.702 60.8466 156.702 66.8253 153.25L65.9593 152.75ZM100.6 121.25C106.101 124.426 106.101 129.574 100.6 132.75L101.466 133.25C107.445 129.798 107.445 124.202 101.466 120.75L100.6 121.25ZM46.0407 101.25C51.541 98.0744 60.4589 98.0744 65.9593 101.25L66.8253 100.75C60.8466 97.2982 51.1533 97.2982 45.1747 100.75L46.0407 101.25ZM10.5336 120.75C4.55498 124.202 4.55498 129.798 10.5336 133.25L11.3997 132.75C5.89929 129.574 5.89929 124.426 11.3997 121.25L10.5336 120.75Z" fill="#D6E4F7"/>
<g filter="url(#filter4_d_2581_3621)">
<rect width="64" height="64" rx="12" transform="matrix(0.866025 -0.5 0.866025 0.5 142.574 129)" fill="#D6E4F7"/>
</g>
<g filter="url(#filter5_ii_2581_3621)">
<path fill-rule="evenodd" clip-rule="evenodd" d="M247.34 67H148.664V128.858C148.6 131.077 150.034 133.307 152.967 135L187.608 155C193.347 158.314 202.653 158.314 208.392 155L243.033 135C245.903 133.343 247.338 131.172 247.338 129H247.34V67Z" fill="url(#paint2_linear_2581_3621)"/>
</g>
<path d="M152.967 73C147.227 69.6863 147.227 64.3137 152.967 61L187.608 41C193.347 37.6863 202.653 37.6863 208.392 41L243.033 61C248.773 64.3137 248.773 69.6863 243.033 73L208.392 93C202.653 96.3137 193.347 96.3137 187.608 93L152.967 73Z" fill="white"/>
<g clip-path="url(#clip2_2581_3621)">
<path d="M198.774 56.7052C198.615 56.636 198.415 56.6591 198.315 56.7167C198.216 56.7743 196.201 57.8916 196.201 57.8916C196.201 57.8916 192.949 57.9261 192.609 57.9146C192.29 57.9146 192.011 58.1219 191.931 58.2141C191.931 58.2141 191.712 58.456 191.353 58.8476C190.993 58.7324 190.515 58.6172 189.976 58.5136C188.28 58.2026 186.804 58.3638 185.766 58.9628C185.686 59.0089 185.627 59.0434 185.567 59.101C185.487 59.101 185.427 59.0895 185.367 59.101C184.43 59.0895 183.612 59.2853 182.933 59.7C181.636 60.4948 181.277 61.8309 181.896 63.4551C182.355 64.5954 183.292 65.8048 184.29 66.5881C183.233 67.7515 182.494 68.5693 182.454 68.5923C181.916 69.1798 181.916 69.2028 182.554 69.6866C183.073 70.0322 196.779 80.2952 196.779 80.2952L216.81 72.1401L222.376 66.807C222.356 66.8185 198.934 56.7743 198.774 56.7052ZM190.774 59.5042C190.495 59.8037 190.195 60.1377 189.876 60.5063C189.198 60.1147 188.14 59.6194 187.043 59.3314C188.22 58.8361 189.876 59.2162 190.774 59.5042ZM189.238 61.1744C188.619 61.854 187.941 62.5912 187.263 63.3284C186.485 62.5566 185.966 61.6582 185.906 60.8864C185.886 60.5984 185.946 60.2414 186.165 59.9304C187.342 60.1492 188.52 60.7367 189.238 61.1744ZM183.871 60.1953C184.19 60.011 184.509 59.8958 184.888 59.8613C184.709 60.1723 184.629 60.5408 184.669 60.9325C184.729 61.9576 185.487 63.1556 186.604 64.1001C186.046 64.7221 185.487 65.3211 184.988 65.8624C183.292 64.3305 181.876 61.4163 183.871 60.1953Z" fill="#95BF47"/>
<path d="M198.315 56.7168C198.215 56.7744 196.2 57.8917 196.2 57.8917C196.2 57.8917 192.948 57.9263 192.609 57.9148C192.49 57.9148 192.37 57.9378 192.29 57.9839L216.81 72.1402L222.376 66.8071C222.376 66.8071 198.954 56.7629 198.794 56.6938C198.614 56.6362 198.415 56.6592 198.315 56.7168Z" fill="#5E8E3E"/>
<path d="M193.906 63.6626L196.26 66.0124C196.26 66.0124 194.864 66.3119 193.806 67.0145C192.23 68.0397 193.288 68.6502 193.547 68.7999C195.083 69.5716 199.173 67.5789 202.764 69.3989C205.577 70.8387 205.837 72.7853 203.702 74.1791C201.128 75.8262 198.036 75.7687 198.036 75.7687L196.161 74.0178C196.161 74.0178 198.814 73.799 199.931 73.0618C200.67 72.5895 200.31 72.0366 199.832 71.8063C197.836 70.7926 194.884 72.6356 191.592 70.9654C188.839 69.5601 187.921 67.0721 191.432 64.7684C192.789 63.8699 193.906 63.6626 193.906 63.6626Z" fill="white"/>
</g>
<path d="M153.4 61.25L188.041 41.25L187.175 40.75L152.534 60.75L153.4 61.25ZM207.959 41.25L242.6 61.25L243.466 60.75L208.825 40.75L207.959 41.25ZM242.6 72.75L207.959 92.75L208.825 93.25L243.466 73.25L242.6 72.75ZM188.041 92.75L153.4 72.75L152.534 73.25L187.175 93.25L188.041 92.75ZM207.959 92.75C202.459 95.9256 193.541 95.9256 188.041 92.75L187.175 93.25C193.153 96.7018 202.847 96.7018 208.825 93.25L207.959 92.75ZM242.6 61.25C248.101 64.4256 248.101 69.5744 242.6 72.75L243.466 73.25C249.445 69.7982 249.445 64.2018 243.466 60.75L242.6 61.25ZM188.041 41.25C193.541 38.0744 202.459 38.0744 207.959 41.25L208.825 40.75C202.847 37.2982 193.153 37.2982 187.175 40.75L188.041 41.25ZM152.534 60.75C146.555 64.2018 146.555 69.7982 152.534 73.25L153.4 72.75C147.899 69.5744 147.899 64.4256 153.4 61.25L152.534 60.75Z" fill="#D6E4F7"/>
<path d="M294.967 135C289.227 131.686 289.227 126.314 294.967 123L329.608 103C335.347 99.6863 344.653 99.6863 350.392 103L385.033 123C390.773 126.314 390.773 131.686 385.033 135L350.392 155C344.653 158.314 335.347 158.314 329.608 155L294.967 135Z" fill="#D6E4F7"/>
<path d="M295.833 123.5L330.474 103.5L328.742 102.5L294.1 122.5L295.833 123.5ZM349.526 103.5L384.167 123.5L385.899 122.5L351.258 102.5L349.526 103.5ZM384.167 134.5L349.526 154.5L351.258 155.5L385.899 135.5L384.167 134.5ZM330.474 154.5L295.833 134.5L294.1 135.5L328.742 155.5L330.474 154.5ZM349.526 154.5C344.265 157.538 335.735 157.538 330.474 154.5L328.742 155.5C334.959 159.09 345.04 159.09 351.258 155.5L349.526 154.5ZM384.167 123.5C389.428 126.538 389.428 131.462 384.167 134.5L385.899 135.5C392.117 131.91 392.117 126.09 385.899 122.5L384.167 123.5ZM330.474 103.5C335.735 100.462 344.265 100.462 349.526 103.5L351.258 102.5C345.04 98.9101 334.959 98.9101 328.742 102.5L330.474 103.5ZM294.1 122.5C287.883 126.09 287.883 131.91 294.1 135.5L295.833 134.5C290.571 131.462 290.571 126.538 295.833 123.5L294.1 122.5Z" fill="white"/>
<g filter="url(#filter6_d_2581_3621)">
<rect width="64" height="64" rx="12" transform="matrix(0.866025 -0.5 0.866025 0.5 426.574 129)" fill="#D6E4F7"/>
</g>
<g filter="url(#filter7_ii_2581_3621)">
<path fill-rule="evenodd" clip-rule="evenodd" d="M432.664 128.858C432.6 131.076 434.034 133.307 436.967 135L471.608 155C477.347 158.314 486.653 158.314 492.392 155L527.033 135C529.903 133.343 531.338 131.172 531.338 129H531.34V127H530.926C530.313 125.534 529.015 124.144 527.033 123L492.392 103C486.653 99.6862 477.347 99.6862 471.608 103L436.967 123C434.985 124.144 433.687 125.534 433.074 127H432.664L432.664 128.858Z" fill="url(#paint3_linear_2581_3621)"/>
</g>
<path d="M436.967 133C431.227 129.686 431.227 124.314 436.967 121L471.608 101C477.347 97.6863 486.653 97.6863 492.392 101L527.033 121C532.773 124.314 532.773 129.686 527.033 133L492.392 153C486.653 156.314 477.347 156.314 471.608 153L436.967 133Z" fill="white"/>
<g clip-path="url(#clip3_2581_3621)">
<path d="M482.209 140.158L482.213 140.289C482.217 140.5 482.329 140.706 482.535 140.882C482.741 141.057 483.032 141.194 483.371 141.275C483.709 141.356 484.081 141.378 484.439 141.337C484.797 141.297 485.125 141.196 485.382 141.047L499.92 132.654C507.284 128.402 500.804 121.162 490.528 122.076L490.508 122.151L482.211 140.159" fill="url(#paint4_linear_2581_3621)"/>
<path d="M459.208 126.878L490.398 122.088L490.528 122.076C492.112 116.144 479.571 112.402 472.208 116.654L457.669 125.047C457.412 125.196 457.237 125.385 457.167 125.592C457.097 125.798 457.135 126.013 457.275 126.209C457.415 126.404 457.652 126.572 457.956 126.691C458.26 126.81 458.617 126.874 458.982 126.877L459.209 126.879" fill="url(#paint5_linear_2581_3621)"/>
<path d="M482.211 140.159L490.508 122.151L490.528 122.076L490.398 122.088L459.208 126.878C465.266 126.921 471.075 128.338 475.379 130.823C479.683 133.308 482.137 136.662 482.211 140.159Z" fill="url(#paint6_linear_2581_3621)"/>
</g>
<path d="M437.4 121.25L472.041 101.25L471.175 100.75L436.534 120.75L437.4 121.25ZM491.959 101.25L526.6 121.25L527.466 120.75L492.825 100.75L491.959 101.25ZM526.6 132.75L491.959 152.75L492.825 153.25L527.466 133.25L526.6 132.75ZM472.041 152.75L437.4 132.75L436.534 133.25L471.175 153.25L472.041 152.75ZM491.959 152.75C486.459 155.926 477.541 155.926 472.041 152.75L471.175 153.25C477.153 156.702 486.847 156.702 492.825 153.25L491.959 152.75ZM526.6 121.25C532.101 124.426 532.101 129.574 526.6 132.75L527.466 133.25C533.445 129.798 533.445 124.202 527.466 120.75L526.6 121.25ZM472.041 101.25C477.541 98.0744 486.459 98.0744 491.959 101.25L492.825 100.75C486.847 97.2982 477.153 97.2982 471.175 100.75L472.041 101.25ZM436.534 120.75C430.555 124.202 430.555 129.798 436.534 133.25L437.4 132.75C431.899 129.574 431.899 124.426 437.4 121.25L436.534 120.75Z" fill="#D6E4F7"/>
<g filter="url(#filter8_d_2581_3621)">
<rect width="64" height="64" rx="12" transform="matrix(0.866025 -0.5 0.866025 0.5 71.5742 170)" fill="#D6E4F7"/>
</g>
<g filter="url(#filter9_ii_2581_3621)">
<path fill-rule="evenodd" clip-rule="evenodd" d="M77.6642 169.858C77.6002 172.076 79.0344 174.307 81.9667 176L116.608 196C122.347 199.314 131.653 199.314 137.392 196L172.033 176C174.903 174.343 176.338 172.172 176.338 170H176.34V148H144.321L137.392 144C131.653 140.686 122.347 140.686 116.608 144L109.68 148H77.6642L77.6642 169.858Z" fill="url(#paint7_linear_2581_3621)"/>
</g>
<path d="M81.9665 154C76.227 150.686 76.227 145.314 81.9665 142L116.608 122C122.347 118.686 131.653 118.686 137.392 122L172.033 142C177.773 145.314 177.773 150.686 172.033 154L137.392 174C131.653 177.314 122.347 177.314 116.608 174L81.9665 154Z" fill="white"/>
<g clip-path="url(#clip4_2581_3621)">
<path d="M128.732 153.333C125.916 153.326 123.112 152.717 120.965 151.477C118.817 150.237 117.762 148.618 117.75 146.992C117.75 145.612 115.821 144.498 113.442 144.505C111.05 144.505 109.121 145.619 109.121 147C109.134 149.903 111.05 152.791 114.882 155.004C118.714 157.216 123.729 158.315 128.745 158.315C131.137 158.315 133.066 157.201 133.066 155.82C133.053 154.447 131.124 153.333 128.732 153.333Z" fill="#FFD75F"/>
<path d="M117.763 147C117.776 145.374 118.843 143.748 120.978 142.515C123.125 141.275 125.941 140.659 128.745 140.659C131.137 140.659 133.066 139.546 133.066 138.165C133.066 136.784 131.137 135.67 128.758 135.677C123.742 135.677 118.714 136.784 114.882 138.996C111.05 141.209 109.134 144.112 109.134 147.007C109.134 148.388 111.063 149.502 113.442 149.495C115.834 149.495 117.776 148.373 117.763 147Z" fill="#4FB5E1"/>
<path d="M139.727 146.985C139.714 148.611 138.647 150.237 136.512 151.469C134.364 152.709 131.548 153.326 128.745 153.326C126.353 153.326 124.424 154.439 124.424 155.82C124.424 157.201 126.353 158.315 128.732 158.308C133.747 158.308 138.775 157.201 142.608 154.989C146.44 152.776 148.356 149.873 148.356 146.978C148.356 145.597 146.427 144.483 144.048 144.49C141.669 144.498 139.74 145.611 139.727 146.985Z" fill="#F05751"/>
<path d="M117.763 147C117.763 148.381 115.834 149.495 113.442 149.495C111.05 149.495 109.121 148.381 109.134 147.007C109.134 145.626 111.063 144.513 113.455 144.513C115.834 144.505 117.763 145.619 117.763 147Z" fill="#0681B6"/>
<path d="M133.053 155.828C133.053 157.209 131.124 158.322 128.732 158.322C126.353 158.33 124.411 157.209 124.424 155.835C124.424 154.454 126.353 153.341 128.745 153.341C131.124 153.333 133.053 154.447 133.053 155.828Z" fill="#CD4739"/>
</g>
<path d="M82.3995 142.25L117.041 122.25L116.175 121.75L81.5335 141.75L82.3995 142.25ZM136.959 122.25L171.6 142.25L172.466 141.75L137.825 121.75L136.959 122.25ZM171.6 153.75L136.959 173.75L137.825 174.25L172.466 154.25L171.6 153.75ZM117.041 173.75L82.3995 153.75L81.5335 154.25L116.175 174.25L117.041 173.75ZM136.959 173.75C131.459 176.926 122.541 176.926 117.041 173.75L116.175 174.25C122.153 177.702 131.847 177.702 137.825 174.25L136.959 173.75ZM171.6 142.25C177.101 145.426 177.101 150.574 171.6 153.75L172.466 154.25C178.445 150.798 178.445 145.202 172.466 141.75L171.6 142.25ZM117.041 122.25C122.541 119.074 131.459 119.074 136.959 122.25L137.825 121.75C131.847 118.298 122.153 118.298 116.175 121.75L117.041 122.25ZM81.5335 141.75C75.5549 145.202 75.5549 150.798 81.5335 154.25L82.3995 153.75C76.8992 150.574 76.8992 145.426 82.3995 142.25L81.5335 141.75Z" fill="#D6E4F7"/>
<g filter="url(#filter10_d_2581_3621)">
<rect width="64" height="64" rx="12" transform="matrix(0.866025 -0.5 0.866025 0.5 355.574 170)" fill="#D6E4F7"/>
</g>
<g filter="url(#filter11_ii_2581_3621)">
<path fill-rule="evenodd" clip-rule="evenodd" d="M460.34 108H361.664V169.858C361.6 172.077 363.034 174.307 365.967 176L400.608 196C406.347 199.314 415.653 199.314 421.392 196L456.033 176C458.903 174.343 460.338 172.172 460.338 170H460.34V108Z" fill="url(#paint8_linear_2581_3621)"/>
</g>
<path d="M365.967 114C360.227 110.686 360.227 105.314 365.967 102L400.608 82C406.347 78.6863 415.653 78.6863 421.392 82L456.033 102C461.773 105.314 461.773 110.686 456.033 114L421.392 134C415.653 137.314 406.347 137.314 400.608 134L365.967 114Z" fill="white"/>
<g clip-path="url(#clip5_2581_3621)">
<path fill-rule="evenodd" clip-rule="evenodd" d="M425.197 100.197C423.251 99.0736 420.773 98.7313 418.972 99.7714C417.162 100.816 417.603 102.335 419.534 103.449C421.822 104.77 424.27 104.691 426.125 103.62C427.029 103.098 427.508 102.585 427.736 102.119L426.216 101.242C425.958 101.689 425.524 102.124 424.772 102.558C424.034 102.984 423.122 103.212 422.141 102.743L425.859 100.597C425.76 100.539 425.38 100.302 425.197 100.197ZM420.72 101.948C419.861 101.452 420.028 100.943 420.507 100.667C420.971 100.399 421.822 100.32 422.681 100.816L420.72 101.948Z" fill="#635BFF"/>
<path fill-rule="evenodd" clip-rule="evenodd" d="M413.133 103.142C412.389 103.572 412.259 104.051 412.236 104.345L411.666 104.13L409.994 105.095L418.858 110.213L420.355 108.883L418.211 107.636C418.683 107.592 419.367 107.522 420.036 107.136C421.397 106.35 421.541 105.003 419.131 103.612C416.919 102.343 414.464 102.374 413.133 103.142ZM417.915 106.429C417.466 106.688 417.041 106.75 416.661 106.741L413.833 105.117C413.81 104.876 413.932 104.63 414.365 104.38C415.057 103.98 416.311 104.152 417.307 104.726C418.325 105.315 418.614 106.026 417.915 106.429Z" fill="#635BFF"/>
<path fill-rule="evenodd" clip-rule="evenodd" d="M406.809 106.276L408.306 104.937L406.763 104.046L405.258 105.38L406.809 106.276Z" fill="#635BFF"/>
<path d="M409.295 105.508L407.386 106.609L414.038 110.449L415.946 109.348L409.295 105.508Z" fill="#635BFF"/>
<path fill-rule="evenodd" clip-rule="evenodd" d="M405.904 108.115L405.22 107.86L403.578 108.808L410.23 112.648L412.13 111.551L407.622 108.949C407.485 108.352 408.352 107.974 408.671 107.886L406.923 106.877C406.588 106.965 405.532 107.382 405.904 108.115Z" fill="#635BFF"/>
<path fill-rule="evenodd" clip-rule="evenodd" d="M399.891 109.032L398.432 110.331L404.513 113.851C405.638 114.5 407.311 114.492 408.436 113.842C409.059 113.482 409.401 113.153 409.515 112.929L407.972 112.038C407.828 112.236 406.976 113.131 405.851 112.482L403.152 110.924L404.597 110.09L402.978 109.155L401.533 109.989L399.891 109.032Z" fill="#635BFF"/>
<path fill-rule="evenodd" clip-rule="evenodd" d="M398.333 114.066C398.036 113.895 398.165 113.689 398.568 113.456C399.146 113.122 400.051 112.802 400.94 112.648L399.154 111.617C398.272 111.837 397.55 112.139 396.919 112.504C395.376 113.395 395.155 114.452 396.501 115.229C398.599 116.44 401.153 114.58 402.058 115.102C402.407 115.304 402.217 115.545 401.792 115.791C401.161 116.155 400.096 116.471 399.108 116.638L400.917 117.683C401.928 117.45 402.772 117.112 403.426 116.735C405.007 115.822 405.311 114.742 403.95 113.956C401.677 112.653 399.184 114.558 398.333 114.066Z" fill="#635BFF"/>
</g>
<path d="M366.4 102.25L401.041 82.25L400.175 81.75L365.534 101.75L366.4 102.25ZM420.959 82.25L455.6 102.25L456.466 101.75L421.825 81.75L420.959 82.25ZM455.6 113.75L420.959 133.75L421.825 134.25L456.466 114.25L455.6 113.75ZM401.041 133.75L366.4 113.75L365.534 114.25L400.175 134.25L401.041 133.75ZM420.959 133.75C415.459 136.926 406.541 136.926 401.041 133.75L400.175 134.25C406.153 137.702 415.847 137.702 421.825 134.25L420.959 133.75ZM455.6 102.25C461.101 105.426 461.101 110.574 455.6 113.75L456.466 114.25C462.445 110.798 462.445 105.202 456.466 101.75L455.6 102.25ZM401.041 82.25C406.541 79.0744 415.459 79.0744 420.959 82.25L421.825 81.75C415.847 78.2982 406.153 78.2982 400.175 81.75L401.041 82.25ZM365.534 101.75C359.555 105.202 359.555 110.798 365.534 114.25L366.4 113.75C360.899 110.574 360.899 105.426 366.4 102.25L365.534 101.75Z" fill="#D6E4F7"/>
<path d="M10.9666 217C5.22713 213.686 5.22713 208.314 10.9666 205L45.6077 185C51.3472 181.686 60.6528 181.686 66.3923 185L101.033 205C106.773 208.314 106.773 213.686 101.033 217L66.3923 237C60.6528 240.314 51.3472 240.314 45.6077 237L10.9666 217Z" fill="#D6E4F7"/>
<path d="M11.8327 205.5L46.4737 185.5L44.7416 184.5L10.1006 204.5L11.8327 205.5ZM65.5262 185.5L100.167 205.5L101.899 204.5L67.2583 184.5L65.5262 185.5ZM100.167 216.5L65.5262 236.5L67.2583 237.5L101.899 217.5L100.167 216.5ZM46.4737 236.5L11.8327 216.5L10.1006 217.5L44.7416 237.5L46.4737 236.5ZM65.5262 236.5C60.265 239.538 51.7349 239.538 46.4737 236.5L44.7416 237.5C50.9594 241.09 61.0405 241.09 67.2583 237.5L65.5262 236.5ZM100.167 205.5C105.428 208.538 105.428 213.462 100.167 216.5L101.899 217.5C108.117 213.91 108.117 208.09 101.899 204.5L100.167 205.5ZM46.4737 185.5C51.7349 182.462 60.265 182.462 65.5262 185.5L67.2583 184.5C61.0405 180.91 50.9594 180.91 44.7416 184.5L46.4737 185.5ZM10.1006 204.5C3.88282 208.09 3.88282 213.91 10.1006 217.5L11.8327 216.5C6.57145 213.462 6.57145 208.538 11.8327 205.5L10.1006 204.5Z" fill="white"/>
<g filter="url(#filter12_d_2581_3621)">
<rect width="64" height="64" rx="12" transform="matrix(0.866025 -0.5 0.866025 0.5 426.574 211)" fill="#D6E4F7"/>
</g>
<g filter="url(#filter13_ii_2581_3621)">
<path fill-rule="evenodd" clip-rule="evenodd" d="M432.664 210.858C432.6 213.076 434.034 215.307 436.967 217L471.608 237C477.347 240.314 486.653 240.314 492.392 237L527.033 217C529.903 215.343 531.338 213.172 531.338 211H531.34V189H499.321L492.392 185C486.653 181.686 477.347 181.686 471.608 185L464.68 189H432.664L432.664 210.858Z" fill="url(#paint9_linear_2581_3621)"/>
</g>
<path d="M436.967 195C431.227 191.686 431.227 186.314 436.967 183L471.608 163C477.347 159.686 486.653 159.686 492.392 163L527.033 183C532.773 186.314 532.773 191.686 527.033 195L492.392 215C486.653 218.314 477.347 218.314 471.608 215L436.967 195Z" fill="white"/>
<g clip-path="url(#clip6_2581_3621)">
<path d="M484.655 189.673L488.151 187.655C489.145 187.081 489.228 186.402 488.35 185.895C487.521 185.417 486.295 185.436 485.301 186.01L481.805 188.028C481.689 188.095 481.689 188.21 481.789 188.267L484.241 189.683C484.373 189.74 484.539 189.74 484.655 189.673Z" fill="#34313F"/>
<path d="M490.305 192.935L493.916 190.85C495.026 190.209 495.126 189.501 494.132 188.927C493.27 188.43 491.945 188.391 490.802 189.051L487.19 191.137C487.074 191.204 487.074 191.318 487.173 191.376L489.874 192.935C490.023 193.002 490.189 193.002 490.305 192.935Z" fill="#34313F"/>
<path d="M481.739 173.221L481.706 185.139L483.396 184.164C486.03 182.643 489.244 182.7 491.05 183.743C492.475 184.565 492.558 185.723 491.994 186.584C491.895 186.718 492.127 186.851 492.376 186.784C494.032 186.364 496.12 186.593 497.578 187.435C499.632 188.621 499.897 190.362 497.23 191.902L489.907 196.13C489.791 196.197 489.592 196.197 489.493 196.139L481.689 191.634L481.64 204.71C481.64 204.882 482.004 204.978 482.22 204.853L509.506 189.099C509.606 189.042 509.606 188.946 509.506 188.889L482.203 173.125C482.07 172.991 481.739 173.068 481.739 173.221Z" fill="#34313F"/>
</g>
<path d="M437.4 183.25L472.041 163.25L471.175 162.75L436.534 182.75L437.4 183.25ZM491.959 163.25L526.6 183.25L527.466 182.75L492.825 162.75L491.959 163.25ZM526.6 194.75L491.959 214.75L492.825 215.25L527.466 195.25L526.6 194.75ZM472.041 214.75L437.4 194.75L436.534 195.25L471.175 215.25L472.041 214.75ZM491.959 214.75C486.459 217.926 477.541 217.926 472.041 214.75L471.175 215.25C477.153 218.702 486.847 218.702 492.825 215.25L491.959 214.75ZM526.6 183.25C532.101 186.426 532.101 191.574 526.6 194.75L527.466 195.25C533.445 191.798 533.445 186.202 527.466 182.75L526.6 183.25ZM472.041 163.25C477.541 160.074 486.459 160.074 491.959 163.25L492.825 162.75C486.847 159.298 477.153 159.298 471.175 162.75L472.041 163.25ZM436.534 182.75C430.555 186.202 430.555 191.798 436.534 195.25L437.4 194.75C431.899 191.574 431.899 186.426 437.4 183.25L436.534 182.75Z" fill="#D6E4F7"/>
<g filter="url(#filter14_d_2581_3621)">
<rect width="128" height="128" rx="24" transform="matrix(0.866025 -0.5 0.866025 0.5 154.149 213)" fill="#D6E4F7"/>
</g>
<g filter="url(#filter15_ii_2581_3621)">
<path fill-rule="evenodd" clip-rule="evenodd" d="M166.328 212.716C166.2 217.153 169.069 221.614 174.933 225L244.216 265C255.695 271.628 274.306 271.628 285.785 265L355.067 225C360.806 221.686 363.676 217.343 363.676 213H363.68V209H362.852C361.626 206.068 359.031 203.289 355.067 201L285.785 161C274.306 154.373 255.695 154.373 244.216 161L174.933 201C170.969 203.289 168.374 206.068 167.148 209H166.328L166.328 212.716Z" fill="url(#paint10_linear_2581_3621)"/>
</g>
<path d="M174.784 221C163.305 214.373 163.305 203.627 174.784 197L244.215 156.914C255.694 150.287 274.305 150.287 285.784 156.914L355.215 197C366.694 203.627 366.694 214.373 355.215 221L285.784 261.086C274.305 267.713 255.694 267.713 244.215 261.086L174.784 221Z" fill="url(#paint11_linear_2581_3621)"/>
<path d="M174.784 221C163.305 214.373 163.305 203.627 174.784 197L244.215 156.914C255.694 150.287 274.305 150.287 285.784 156.914L355.215 197C366.694 203.627 366.694 214.373 355.215 221L285.784 261.086C274.305 267.713 255.694 267.713 244.215 261.086L174.784 221Z" fill="url(#paint12_linear_2581_3621)"/>
<path d="M174.784 221C163.305 214.373 163.305 203.627 174.784 197L244.215 156.914C255.694 150.287 274.305 150.287 285.784 156.914L355.215 197C366.694 203.627 366.694 214.373 355.215 221L285.784 261.086C274.305 267.713 255.694 267.713 244.215 261.086L174.784 221Z" fill="white" fill-opacity="0.9"/>
<g clip-path="url(#clip7_2581_3621)">
<path fill-rule="evenodd" clip-rule="evenodd" d="M251.346 196.523C251.346 195.821 252.332 195.253 253.548 195.252L295.557 195.254C296.772 195.254 297.758 195.824 297.759 196.526L297.759 198.743L251.347 198.741L251.346 196.523ZM268.741 201.467L243.167 201.469C241.952 201.469 240.965 202.039 240.966 202.74L240.979 226.691C240.98 227.394 241.965 227.963 243.182 227.962L266.556 227.96C267.771 227.96 268.756 227.392 268.757 226.69L268.783 211.298L295.489 211.265C296.7 211.264 297.681 210.698 297.685 209.999L297.739 201.591L268.741 201.467ZM258.82 217.41C256.412 218.8 252.578 218.75 250.257 217.41C247.935 216.069 247.849 213.856 250.257 212.466C252.665 211.076 256.498 211.126 258.82 212.466C261.141 213.807 261.227 216.02 258.82 217.41ZM255.66 214.095C255.977 214.095 256.238 214.152 256.443 214.265C256.649 214.379 256.773 214.537 256.817 214.739C256.825 214.751 256.837 214.757 256.853 214.757L257.251 214.754C257.272 214.754 257.287 214.758 257.3 214.768C257.316 214.775 257.324 214.784 257.324 214.796L257.324 215.067C257.324 215.079 257.315 215.089 257.3 215.099C257.287 215.106 257.271 215.109 257.251 215.109L256.847 215.106C256.831 215.106 256.819 215.111 256.811 215.123L256.772 215.563L256.249 215.551L256.27 214.891C256.27 214.754 256.185 214.65 256.081 214.583C255.976 214.513 255.841 214.478 255.677 214.479C255.564 214.478 255.47 214.497 255.393 214.534C255.313 214.571 255.243 214.626 255.182 214.698C255.118 214.767 255.035 214.872 254.935 215.011C254.83 215.167 254.732 215.294 254.639 215.391C254.547 215.488 254.422 215.57 254.265 215.634C254.105 215.7 253.906 215.732 253.669 215.732C253.363 215.732 253.112 215.679 252.915 215.572C252.718 215.463 252.595 215.315 252.547 215.13C252.538 215.118 252.526 215.112 252.511 215.112L252.064 215.119C252.044 215.119 252.028 215.115 252.016 215.108C252 215.099 251.992 215.089 251.992 215.077L251.992 214.805C251.992 214.794 252 214.785 252.016 214.778C252.029 214.768 252.045 214.764 252.065 214.764L252.517 214.771C252.533 214.77 252.545 214.765 252.553 214.753L252.553 214.414H253.084L253.084 214.876C253.084 215.108 253.172 215.187 253.265 215.254C253.357 215.322 253.488 215.355 253.657 215.355C253.777 215.355 253.876 215.338 253.952 215.303C254.028 215.266 254.099 215.212 254.164 215.143C254.224 215.071 254.302 214.962 254.399 214.816C254.507 214.658 254.606 214.533 254.694 214.44C254.783 214.344 254.907 214.263 255.068 214.196C255.225 214.129 255.422 214.095 255.66 214.095Z" fill="url(#paint13_linear_2581_3621)"/>
<path fill-rule="evenodd" clip-rule="evenodd" d="M251.346 196.523C251.346 195.821 252.332 195.253 253.548 195.252L295.557 195.254C296.772 195.254 297.758 195.824 297.759 196.526L297.759 198.743L251.347 198.741L251.346 196.523ZM268.741 201.467L243.167 201.469C241.952 201.469 240.965 202.039 240.966 202.74L240.979 226.691C240.98 227.394 241.965 227.963 243.182 227.962L266.556 227.96C267.771 227.96 268.756 227.392 268.757 226.69L268.783 211.298L295.489 211.265C296.7 211.264 297.681 210.698 297.685 209.999L297.739 201.591L268.741 201.467ZM258.82 217.41C256.412 218.8 252.578 218.75 250.257 217.41C247.935 216.069 247.849 213.856 250.257 212.466C252.665 211.076 256.498 211.126 258.82 212.466C261.141 213.807 261.227 216.02 258.82 217.41ZM255.66 214.095C255.977 214.095 256.238 214.152 256.443 214.265C256.649 214.379 256.773 214.537 256.817 214.739C256.825 214.751 256.837 214.757 256.853 214.757L257.251 214.754C257.272 214.754 257.287 214.758 257.3 214.768C257.316 214.775 257.324 214.784 257.324 214.796L257.324 215.067C257.324 215.079 257.315 215.089 257.3 215.099C257.287 215.106 257.271 215.109 257.251 215.109L256.847 215.106C256.831 215.106 256.819 215.111 256.811 215.123L256.772 215.563L256.249 215.551L256.27 214.891C256.27 214.754 256.185 214.65 256.081 214.583C255.976 214.513 255.841 214.478 255.677 214.479C255.564 214.478 255.47 214.497 255.393 214.534C255.313 214.571 255.243 214.626 255.182 214.698C255.118 214.767 255.035 214.872 254.935 215.011C254.83 215.167 254.732 215.294 254.639 215.391C254.547 215.488 254.422 215.57 254.265 215.634C254.105 215.7 253.906 215.732 253.669 215.732C253.363 215.732 253.112 215.679 252.915 215.572C252.718 215.463 252.595 215.315 252.547 215.13C252.538 215.118 252.526 215.112 252.511 215.112L252.064 215.119C252.044 215.119 252.028 215.115 252.016 215.108C252 215.099 251.992 215.089 251.992 215.077L251.992 214.805C251.992 214.794 252 214.785 252.016 214.778C252.029 214.768 252.045 214.764 252.065 214.764L252.517 214.771C252.533 214.77 252.545 214.765 252.553 214.753L252.553 214.414H253.084L253.084 214.876C253.084 215.108 253.172 215.187 253.265 215.254C253.357 215.322 253.488 215.355 253.657 215.355C253.777 215.355 253.876 215.338 253.952 215.303C254.028 215.266 254.099 215.212 254.164 215.143C254.224 215.071 254.302 214.962 254.399 214.816C254.507 214.658 254.606 214.533 254.694 214.44C254.783 214.344 254.907 214.263 255.068 214.196C255.225 214.129 255.422 214.095 255.66 214.095Z" fill="url(#paint14_linear_2581_3621)"/>
<path fill-rule="evenodd" clip-rule="evenodd" d="M251.346 196.523C251.346 195.821 252.332 195.253 253.548 195.252L295.557 195.254C296.772 195.254 297.758 195.824 297.759 196.526L297.759 198.743L251.347 198.741L251.346 196.523ZM268.741 201.467L243.167 201.469C241.952 201.469 240.965 202.039 240.966 202.74L240.979 226.691C240.98 227.394 241.965 227.963 243.182 227.962L266.556 227.96C267.771 227.96 268.756 227.392 268.757 226.69L268.783 211.298L295.489 211.265C296.7 211.264 297.681 210.698 297.685 209.999L297.739 201.591L268.741 201.467ZM258.82 217.41C256.412 218.8 252.578 218.75 250.257 217.41C247.935 216.069 247.849 213.856 250.257 212.466C252.665 211.076 256.498 211.126 258.82 212.466C261.141 213.807 261.227 216.02 258.82 217.41ZM255.66 214.095C255.977 214.095 256.238 214.152 256.443 214.265C256.649 214.379 256.773 214.537 256.817 214.739C256.825 214.751 256.837 214.757 256.853 214.757L257.251 214.754C257.272 214.754 257.287 214.758 257.3 214.768C257.316 214.775 257.324 214.784 257.324 214.796L257.324 215.067C257.324 215.079 257.315 215.089 257.3 215.099C257.287 215.106 257.271 215.109 257.251 215.109L256.847 215.106C256.831 215.106 256.819 215.111 256.811 215.123L256.772 215.563L256.249 215.551L256.27 214.891C256.27 214.754 256.185 214.65 256.081 214.583C255.976 214.513 255.841 214.478 255.677 214.479C255.564 214.478 255.47 214.497 255.393 214.534C255.313 214.571 255.243 214.626 255.182 214.698C255.118 214.767 255.035 214.872 254.935 215.011C254.83 215.167 254.732 215.294 254.639 215.391C254.547 215.488 254.422 215.57 254.265 215.634C254.105 215.7 253.906 215.732 253.669 215.732C253.363 215.732 253.112 215.679 252.915 215.572C252.718 215.463 252.595 215.315 252.547 215.13C252.538 215.118 252.526 215.112 252.511 215.112L252.064 215.119C252.044 215.119 252.028 215.115 252.016 215.108C252 215.099 251.992 215.089 251.992 215.077L251.992 214.805C251.992 214.794 252 214.785 252.016 214.778C252.029 214.768 252.045 214.764 252.065 214.764L252.517 214.771C252.533 214.77 252.545 214.765 252.553 214.753L252.553 214.414H253.084L253.084 214.876C253.084 215.108 253.172 215.187 253.265 215.254C253.357 215.322 253.488 215.355 253.657 215.355C253.777 215.355 253.876 215.338 253.952 215.303C254.028 215.266 254.099 215.212 254.164 215.143C254.224 215.071 254.302 214.962 254.399 214.816C254.507 214.658 254.606 214.533 254.694 214.44C254.783 214.344 254.907 214.263 255.068 214.196C255.225 214.129 255.422 214.095 255.66 214.095Z" fill="#41546C" fill-opacity="0.8"/>
</g>
<path d="M175.65 197.5L245.081 157.414L243.349 156.414L173.918 196.5L175.65 197.5ZM284.918 157.414L354.349 197.5L356.081 196.5L286.65 156.414L284.918 157.414ZM354.349 220.5L284.918 260.586L286.65 261.586L356.081 221.5L354.349 220.5ZM245.081 260.586L175.65 220.5L173.918 221.5L243.349 261.586L245.081 260.586ZM284.918 260.586C273.918 266.937 256.082 266.937 245.081 260.586L243.349 261.586C255.306 268.489 274.693 268.489 286.65 261.586L284.918 260.586ZM354.349 197.5C365.35 203.851 365.35 214.149 354.349 220.5L356.081 221.5C368.039 214.596 368.039 203.404 356.081 196.5L354.349 197.5ZM245.081 157.414C256.082 151.063 273.918 151.063 284.918 157.414L286.65 156.414C274.693 149.511 255.307 149.511 243.349 156.414L245.081 157.414ZM173.918 196.5C161.961 203.404 161.961 214.596 173.918 221.5L175.65 220.5C164.65 214.149 164.65 203.851 175.65 197.5L173.918 196.5Z" fill="url(#paint15_linear_2581_3621)"/>
<path d="M175.65 197.5L245.081 157.414L243.349 156.414L173.918 196.5L175.65 197.5ZM284.918 157.414L354.349 197.5L356.081 196.5L286.65 156.414L284.918 157.414ZM354.349 220.5L284.918 260.586L286.65 261.586L356.081 221.5L354.349 220.5ZM245.081 260.586L175.65 220.5L173.918 221.5L243.349 261.586L245.081 260.586ZM284.918 260.586C273.918 266.937 256.082 266.937 245.081 260.586L243.349 261.586C255.306 268.489 274.693 268.489 286.65 261.586L284.918 260.586ZM354.349 197.5C365.35 203.851 365.35 214.149 354.349 220.5L356.081 221.5C368.039 214.596 368.039 203.404 356.081 196.5L354.349 197.5ZM245.081 157.414C256.082 151.063 273.918 151.063 284.918 157.414L286.65 156.414C274.693 149.511 255.307 149.511 243.349 156.414L245.081 157.414ZM173.918 196.5C161.961 203.404 161.961 214.596 173.918 221.5L175.65 220.5C164.65 214.149 164.65 203.851 175.65 197.5L173.918 196.5Z" fill="url(#paint16_linear_2581_3621)"/>
<g filter="url(#filter16_d_2581_3621)">
<rect width="64" height="64" rx="12" transform="matrix(0.866025 -0.5 0.866025 0.5 71.5742 252)" fill="#D6E4F7"/>
</g>
<g filter="url(#filter17_ii_2581_3621)">
<path fill-rule="evenodd" clip-rule="evenodd" d="M176.34 190H77.6642V251.858C77.6002 254.077 79.0344 256.307 81.9667 258L116.608 278C122.347 281.314 131.653 281.314 137.392 278L172.033 258C174.903 256.343 176.338 254.172 176.338 252H176.34V190Z" fill="url(#paint17_linear_2581_3621)"/>
</g>
<path d="M81.9665 196C76.227 192.686 76.227 187.314 81.9665 184L116.608 164C122.347 160.686 131.653 160.686 137.392 164L172.033 184C177.773 187.314 177.773 192.686 172.033 196L137.392 216C131.653 219.314 122.347 219.314 116.608 216L81.9665 196Z" fill="white"/>
<g clip-path="url(#clip8_2581_3621)">
<path d="M123.065 185.764L138.676 194.777L138.079 196.205L135.6 196.548L120.005 187.544L118.477 191.255L131.827 198.963L140.716 197.727L142.879 192.555L129.544 184.856L123.065 185.764ZM113.309 181.904L108.738 192.657L122.091 200.366L126.877 199.651L113.524 191.942L116.89 183.969L130.699 182.016L130.755 182.008L144.072 189.701L145.3 186.966L131.948 179.257L113.309 181.904Z" fill="#EC6737"/>
</g>
<path d="M82.3995 184.25L117.041 164.25L116.175 163.75L81.5335 183.75L82.3995 184.25ZM136.959 164.25L171.6 184.25L172.466 183.75L137.825 163.75L136.959 164.25ZM171.6 195.75L136.959 215.75L137.825 216.25L172.466 196.25L171.6 195.75ZM117.041 215.75L82.3995 195.75L81.5335 196.25L116.175 216.25L117.041 215.75ZM136.959 215.75C131.459 218.926 122.541 218.926 117.041 215.75L116.175 216.25C122.153 219.702 131.847 219.702 137.825 216.25L136.959 215.75ZM171.6 184.25C177.101 187.426 177.101 192.574 171.6 195.75L172.466 196.25C178.445 192.798 178.445 187.202 172.466 183.75L171.6 184.25ZM117.041 164.25C122.541 161.074 131.459 161.074 136.959 164.25L137.825 163.75C131.847 160.298 122.153 160.298 116.175 163.75L117.041 164.25ZM81.5335 183.75C75.5549 187.202 75.5549 192.798 81.5335 196.25L82.3995 195.75C76.8992 192.574 76.8992 187.426 82.3995 184.25L81.5335 183.75Z" fill="#D6E4F7"/>
<g filter="url(#filter18_d_2581_3621)">
<rect width="64" height="64" rx="12" transform="matrix(0.866025 -0.5 0.866025 0.5 355.574 252)" fill="#D6E4F7"/>
</g>
<g filter="url(#filter19_ii_2581_3621)">
<path fill-rule="evenodd" clip-rule="evenodd" d="M361.664 251.858C361.6 254.076 363.034 256.307 365.967 258L400.608 278C406.347 281.314 415.653 281.314 421.392 278L456.033 258C458.903 256.343 460.338 254.172 460.338 252H460.34V250H459.926C459.313 248.534 458.015 247.144 456.033 246L421.392 226C415.653 222.686 406.347 222.686 400.608 226L365.967 246C363.985 247.144 362.687 248.534 362.074 250H361.664L361.664 251.858Z" fill="url(#paint18_linear_2581_3621)"/>
</g>
<path d="M365.967 256C360.227 252.686 360.227 247.314 365.967 244L400.608 224C406.347 220.686 415.653 220.686 421.392 224L456.033 244C461.773 247.314 461.773 252.686 456.033 256L421.392 276C415.653 279.314 406.347 279.314 400.608 276L365.967 256Z" fill="white"/>
<g clip-path="url(#clip9_2581_3621)">
<path d="M423.233 243.875L415.059 248.594C413.716 249.369 413.716 250.631 415.059 251.406C416.403 252.182 418.588 252.182 419.931 251.406L428.104 246.688C429.447 245.912 429.447 244.65 428.104 243.875C426.761 243.1 424.576 243.1 423.233 243.875Z" fill="#ECB22E"/>
<path d="M402.069 248.594L393.896 253.312C392.553 254.088 392.553 255.35 393.896 256.125C395.239 256.9 397.424 256.9 398.767 256.125L406.94 251.406C408.283 250.631 408.283 249.369 406.94 248.594C405.597 247.818 403.412 247.818 402.069 248.594Z" fill="#36C5F0"/>
<path d="M413.436 247.656C414.779 246.881 414.779 245.619 413.436 244.844L405.262 240.125C403.919 239.35 401.734 239.35 400.391 240.125C399.048 240.9 399.048 242.162 400.391 242.938L408.564 247.656C409.907 248.432 412.092 248.432 413.436 247.656Z" fill="#2EB67D"/>
<path d="M408.564 252.344C407.221 253.119 407.221 254.381 408.564 255.156L416.737 259.875C418.08 260.65 420.266 260.65 421.609 259.875C422.952 259.1 422.952 257.838 421.609 257.062L413.436 252.344C412.092 251.568 409.907 251.568 408.564 252.344Z" fill="#E01E5A"/>
<path d="M418.361 244.812L420.797 243.406C422.587 242.372 422.587 240.69 420.797 239.656C419.006 238.622 416.092 238.622 414.302 239.656C412.511 240.69 412.511 242.372 414.302 243.406L416.737 244.812C417.186 245.071 417.913 245.071 418.361 244.812Z" fill="#2EB67D"/>
<path d="M403.639 255.188L401.203 256.594C399.412 257.628 399.412 259.31 401.203 260.344C402.994 261.378 405.907 261.378 407.698 260.344C409.489 259.31 409.489 257.628 407.698 256.594L405.262 255.188C404.814 254.929 404.087 254.929 403.639 255.188Z" fill="#E01E5A"/>
<path d="M393.084 244.344C391.293 245.378 391.293 247.06 393.084 248.094C394.875 249.128 397.788 249.128 399.579 248.094L402.015 246.688C402.463 246.429 402.463 246.009 402.015 245.75L399.579 244.344C397.788 243.31 394.875 243.31 393.084 244.344Z" fill="#36C5F0"/>
<path d="M422.421 251.906L419.985 253.312C419.537 253.571 419.537 253.991 419.985 254.25L422.421 255.656C424.211 256.69 427.125 256.69 428.916 255.656C430.707 254.622 430.707 252.94 428.916 251.906C427.125 250.872 424.211 250.872 422.421 251.906Z" fill="#ECB22E"/>
</g>
<path d="M366.4 244.25L401.041 224.25L400.175 223.75L365.534 243.75L366.4 244.25ZM420.959 224.25L455.6 244.25L456.466 243.75L421.825 223.75L420.959 224.25ZM455.6 255.75L420.959 275.75L421.825 276.25L456.466 256.25L455.6 255.75ZM401.041 275.75L366.4 255.75L365.534 256.25L400.175 276.25L401.041 275.75ZM420.959 275.75C415.459 278.926 406.541 278.926 401.041 275.75L400.175 276.25C406.153 279.702 415.847 279.702 421.825 276.25L420.959 275.75ZM455.6 244.25C461.101 247.426 461.101 252.574 455.6 255.75L456.466 256.25C462.445 252.798 462.445 247.202 456.466 243.75L455.6 244.25ZM401.041 224.25C406.541 221.074 415.459 221.074 420.959 224.25L421.825 223.75C415.847 220.298 406.153 220.298 400.175 223.75L401.041 224.25ZM365.534 243.75C359.555 247.202 359.555 252.798 365.534 256.25L366.4 255.75C360.899 252.574 360.899 247.426 366.4 244.25L365.534 243.75Z" fill="#D6E4F7"/>
<g filter="url(#filter20_d_2581_3621)">
<rect width="64" height="64" rx="12" transform="matrix(0.866025 -0.5 0.866025 0.5 0.574341 293)" fill="#D6E4F7"/>
</g>
<g filter="url(#filter21_ii_2581_3621)">
<path fill-rule="evenodd" clip-rule="evenodd" d="M6.66416 292.858C6.60017 295.076 8.03436 297.307 10.9667 299L45.6078 319C51.3473 322.314 60.6529 322.314 66.3924 319L101.033 299C103.903 297.343 105.338 295.172 105.338 293H105.34V291H104.926C104.313 289.534 103.015 288.144 101.033 287L66.3924 267C60.6529 263.686 51.3473 263.686 45.6078 267L10.9667 287C8.98471 288.144 7.68713 289.534 7.07401 291H6.66416L6.66416 292.858Z" fill="url(#paint19_linear_2581_3621)"/>
</g>
<path d="M10.9666 297C5.22713 293.686 5.22713 288.314 10.9666 285L45.6077 265C51.3472 261.686 60.6528 261.686 66.3923 265L101.033 285C106.773 288.314 106.773 293.686 101.033 297L66.3923 317C60.6528 320.314 51.3472 320.314 45.6077 317L10.9666 297Z" fill="white"/>
<g clip-path="url(#clip10_2581_3621)">
<path d="M43.4136 297.542L47.2782 286.682C47.4406 286.26 48.138 285.857 48.8697 285.763L67.68 283.532C68.8044 283.397 69.5339 283.818 69.2992 284.467L68.7755 285.92C63.0351 285.186 56.7879 286.122 52.3352 288.693C47.8646 291.274 46.2792 294.881 47.5312 298.185L45.0148 298.487C43.9084 298.613 43.1611 298.181 43.4136 297.542ZM55.4489 290.491C52.0691 292.442 50.8978 295.173 51.8502 297.664L56.1869 297.153C55.4807 295.465 56.2558 293.62 58.5448 292.299C60.8159 290.988 64.0286 290.53 66.9521 290.938L67.8371 288.434C63.5764 287.853 58.8287 288.54 55.4489 290.491ZM61.6941 294.097C60.5139 294.778 60.135 295.757 60.5415 296.632L63.4326 296.277C63.9501 296.246 64.4322 296.132 64.8256 295.905C65.219 295.677 65.4343 295.389 65.4713 295.1L66.085 293.431C64.6234 293.186 62.8922 293.405 61.6941 294.097Z" fill="url(#paint20_linear_2581_3621)"/>
</g>
<path d="M11.3997 285.25L46.0407 265.25L45.1747 264.75L10.5336 284.75L11.3997 285.25ZM65.9593 265.25L100.6 285.25L101.466 284.75L66.8253 264.75L65.9593 265.25ZM100.6 296.75L65.9593 316.75L66.8253 317.25L101.466 297.25L100.6 296.75ZM46.0407 316.75L11.3997 296.75L10.5336 297.25L45.1746 317.25L46.0407 316.75ZM65.9593 316.75C60.4589 319.926 51.541 319.926 46.0407 316.75L45.1746 317.25C51.1533 320.702 60.8466 320.702 66.8253 317.25L65.9593 316.75ZM100.6 285.25C106.101 288.426 106.101 293.574 100.6 296.75L101.466 297.25C107.445 293.798 107.445 288.202 101.466 284.75L100.6 285.25ZM46.0407 265.25C51.541 262.074 60.4589 262.074 65.9593 265.25L66.8253 264.75C60.8466 261.298 51.1533 261.298 45.1747 264.75L46.0407 265.25ZM10.5336 284.75C4.55498 288.202 4.55498 293.798 10.5336 297.25L11.3997 296.75C5.89929 293.574 5.89929 288.426 11.3997 285.25L10.5336 284.75Z" fill="#D6E4F7"/>
<g filter="url(#filter22_d_2581_3621)">
<rect width="64" height="64" rx="12" transform="matrix(0.866025 -0.5 0.866025 0.5 142.574 293)" fill="#D6E4F7"/>
</g>
<g filter="url(#filter23_ii_2581_3621)">
<path fill-rule="evenodd" clip-rule="evenodd" d="M148.664 292.858C148.6 295.076 150.034 297.307 152.967 299L187.608 319C193.347 322.314 202.653 322.314 208.392 319L243.033 299C245.903 297.343 247.338 295.172 247.338 293H247.34V291H246.926C246.313 289.534 245.015 288.144 243.033 287L208.392 267C202.653 263.686 193.347 263.686 187.608 267L152.967 287C150.985 288.144 149.687 289.534 149.074 291H148.664L148.664 292.858Z" fill="url(#paint21_linear_2581_3621)"/>
</g>
<path d="M152.967 297C147.227 293.686 147.227 288.314 152.967 285L187.608 265C193.347 261.686 202.653 261.686 208.392 265L243.033 285C248.773 288.314 248.773 293.686 243.033 297L208.392 317C202.653 320.314 193.347 320.314 187.608 317L152.967 297Z" fill="white"/>
<g clip-path="url(#clip11_2581_3621)">
<path d="M200.513 281.816C200.179 281.569 199.815 281.331 199.421 281.103C196.11 279.191 190.733 279.196 187.412 281.113L177.363 286.915C176.731 287.28 176.647 287.854 177.163 288.273L195.408 303.082C196.062 303.614 197.389 303.677 198.189 303.214L201.865 301.092C202.497 300.727 202.592 300.147 202.075 299.728C202.075 299.728 202.044 299.703 201.99 299.659L201.99 299.659L204.514 301.707C205.091 302.176 206.26 302.231 206.965 301.824L210.181 299.967C210.738 299.646 210.812 299.139 210.357 298.77L205.856 295.117C205.081 294.487 205.207 293.625 206.156 293.077L207.001 292.589C211.589 289.94 211.599 285.652 207.024 283.01C205.254 281.988 202.811 281.591 200.513 281.816Z" fill="#002987"/>
<path d="M200.646 281.872C204.714 284.88 204.352 289.236 199.559 292.003L196.778 293.609C196.15 293.972 196.026 294.526 196.447 294.965L204.664 301.629C205.238 302.095 206.399 302.151 207.099 301.747L210.288 299.905C210.841 299.586 210.913 299.084 210.46 298.716L205.983 295.085C205.211 294.459 205.335 293.603 206.276 293.059L207.114 292.576C211.664 289.949 211.665 285.689 207.115 283.063C205.354 282.046 202.928 281.65 200.646 281.872Z" fill="#0085CC"/>
<path d="M196.275 293.649L199.071 292.035C203.89 289.253 204.33 284.917 200.338 281.95C198.879 282.101 197.475 282.503 196.339 283.159L189.042 287.372C188.211 287.852 188.089 288.601 188.753 289.143L195.921 295C195.511 294.565 195.644 294.013 196.275 293.649Z" fill="#00186A"/>
</g>
<path d="M153.4 285.25L188.041 265.25L187.175 264.75L152.534 284.75L153.4 285.25ZM207.959 265.25L242.6 285.25L243.466 284.75L208.825 264.75L207.959 265.25ZM242.6 296.75L207.959 316.75L208.825 317.25L243.466 297.25L242.6 296.75ZM188.041 316.75L153.4 296.75L152.534 297.25L187.175 317.25L188.041 316.75ZM207.959 316.75C202.459 319.926 193.541 319.926 188.041 316.75L187.175 317.25C193.153 320.702 202.847 320.702 208.825 317.25L207.959 316.75ZM242.6 285.25C248.101 288.426 248.101 293.574 242.6 296.75L243.466 297.25C249.445 293.798 249.445 288.202 243.466 284.75L242.6 285.25ZM188.041 265.25C193.541 262.074 202.459 262.074 207.959 265.25L208.825 264.75C202.847 261.298 193.153 261.298 187.175 264.75L188.041 265.25ZM152.534 284.75C146.555 288.202 146.555 293.798 152.534 297.25L153.4 296.75C147.899 293.574 147.899 288.426 153.4 285.25L152.534 284.75Z" fill="#D6E4F7"/>
<g filter="url(#filter24_d_2581_3621)">
<rect width="64" height="64" rx="12" transform="matrix(0.866025 -0.5 0.866025 0.5 284.574 293)" fill="#D6E4F7"/>
</g>
<g filter="url(#filter25_ii_2581_3621)">
<path fill-rule="evenodd" clip-rule="evenodd" d="M290.664 292.858C290.6 295.076 292.034 297.307 294.967 299L329.608 319C335.347 322.314 344.653 322.314 350.392 319L385.033 299C387.903 297.343 389.338 295.172 389.338 293H389.34V291H388.926C388.313 289.534 387.015 288.144 385.033 287L350.392 267C344.653 263.686 335.347 263.686 329.608 267L294.967 287C292.985 288.144 291.687 289.534 291.074 291H290.664L290.664 292.858Z" fill="url(#paint22_linear_2581_3621)"/>
</g>
<path d="M294.967 297C289.227 293.686 289.227 288.314 294.967 285L329.608 265C335.347 261.686 344.653 261.686 350.392 265L385.033 285C390.773 288.314 390.773 293.686 385.033 297L350.392 317C344.653 320.314 335.347 320.314 329.608 317L294.967 297Z" fill="white"/>
<g clip-path="url(#clip12_2581_3621)">
<path d="M354.32 286.472C355.279 285.919 355.279 285.021 354.32 284.468C353.361 283.914 351.806 283.914 350.848 284.468C349.889 285.021 349.889 285.919 350.848 286.472C351.806 287.026 353.361 287.026 354.32 286.472Z" fill="#2396FB"/>
<path d="M337.199 291.072L328.815 295.912C330.765 296.427 332.678 296.094 333.875 295.403C335.12 294.685 335.565 293.741 335.667 292.985L339.437 293.189C339.233 294.894 337.998 296.175 336.559 297.006C333.188 298.941 327.998 298.871 324.823 297.038C321.676 295.221 321.722 292.353 324.916 290.509C328.156 288.638 333.142 288.729 337.199 291.072ZM326.624 294.615L331.833 291.608C330.524 291.109 328.62 291.136 327.246 291.929C325.919 292.696 325.677 293.811 326.624 294.615Z" fill="#303F9F"/>
<path d="M347.078 284.275C350.225 286.092 350.458 288.906 347.589 290.562C346.326 291.291 344.831 291.672 343.16 291.661L348.842 294.942C348.944 295.001 348.944 295.097 348.842 295.156L346.224 296.668L335.918 290.718C332.789 288.911 332.539 286.108 335.825 284.21C339.093 282.323 343.949 282.468 347.078 284.275ZM344.293 285.883C342.538 284.87 339.985 284.832 338.444 285.722C336.902 286.612 337.032 288.123 338.722 289.099C340.449 290.096 343.095 290.187 344.636 289.297C346.177 288.407 346.066 286.907 344.293 285.883Z" fill="#303F9F"/>
</g>
<path d="M295.4 285.25L330.041 265.25L329.175 264.75L294.534 284.75L295.4 285.25ZM349.959 265.25L384.6 285.25L385.466 284.75L350.825 264.75L349.959 265.25ZM384.6 296.75L349.959 316.75L350.825 317.25L385.466 297.25L384.6 296.75ZM330.041 316.75L295.4 296.75L294.534 297.25L329.175 317.25L330.041 316.75ZM349.959 316.75C344.459 319.926 335.541 319.926 330.041 316.75L329.175 317.25C335.153 320.702 344.847 320.702 350.825 317.25L349.959 316.75ZM384.6 285.25C390.101 288.426 390.101 293.574 384.6 296.75L385.466 297.25C391.445 293.798 391.445 288.202 385.466 284.75L384.6 285.25ZM330.041 265.25C335.541 262.074 344.459 262.074 349.959 265.25L350.825 264.75C344.847 261.298 335.153 261.298 329.175 264.75L330.041 265.25ZM294.534 284.75C288.555 288.202 288.555 293.798 294.534 297.25L295.4 296.75C289.899 293.574 289.899 288.426 295.4 285.25L294.534 284.75Z" fill="#D6E4F7"/>
<path d="M436.967 299C431.227 295.686 431.227 290.314 436.967 287L471.608 267C477.347 263.686 486.653 263.686 492.392 267L527.033 287C532.773 290.314 532.773 295.686 527.033 299L492.392 319C486.653 322.314 477.347 322.314 471.608 319L436.967 299Z" fill="#D6E4F7"/>
<path d="M437.833 287.5L472.474 267.5L470.742 266.5L436.1 286.5L437.833 287.5ZM491.526 267.5L526.167 287.5L527.899 286.5L493.258 266.5L491.526 267.5ZM526.167 298.5L491.526 318.5L493.258 319.5L527.899 299.5L526.167 298.5ZM472.474 318.5L437.833 298.5L436.1 299.5L470.742 319.5L472.474 318.5ZM491.526 318.5C486.265 321.538 477.735 321.538 472.474 318.5L470.742 319.5C476.959 323.09 487.04 323.09 493.258 319.5L491.526 318.5ZM526.167 287.5C531.428 290.538 531.428 295.462 526.167 298.5L527.899 299.5C534.117 295.91 534.117 290.09 527.899 286.5L526.167 287.5ZM472.474 267.5C477.735 264.462 486.265 264.462 491.526 267.5L493.258 266.5C487.04 262.91 476.959 262.91 470.742 266.5L472.474 267.5ZM436.1 286.5C429.883 290.09 429.883 295.91 436.1 299.5L437.833 298.5C432.571 295.462 432.571 290.538 437.833 287.5L436.1 286.5Z" fill="white"/>
<path d="M81.9665 340C76.227 336.686 76.227 331.314 81.9665 328L116.608 308C122.347 304.686 131.653 304.686 137.392 308L172.033 328C177.773 331.314 177.773 336.686 172.033 340L137.392 360C131.653 363.314 122.347 363.314 116.608 360L81.9665 340Z" fill="#D6E4F7"/>
<path d="M82.8325 328.5L117.474 308.5L115.742 307.5L81.1005 327.5L82.8325 328.5ZM136.526 308.5L171.167 328.5L172.899 327.5L138.258 307.5L136.526 308.5ZM171.167 339.5L136.526 359.5L138.258 360.5L172.899 340.5L171.167 339.5ZM117.474 359.5L82.8325 339.5L81.1005 340.5L115.742 360.5L117.474 359.5ZM136.526 359.5C131.265 362.538 122.735 362.538 117.474 359.5L115.742 360.5C121.959 364.09 132.04 364.09 138.258 360.5L136.526 359.5ZM171.167 328.5C176.428 331.538 176.428 336.462 171.167 339.5L172.899 340.5C179.117 336.91 179.117 331.09 172.899 327.5L171.167 328.5ZM117.474 308.5C122.735 305.462 131.265 305.462 136.526 308.5L138.258 307.5C132.04 303.91 121.959 303.91 115.742 307.5L117.474 308.5ZM81.1005 327.5C74.8827 331.09 74.8827 336.91 81.1005 340.5L82.8325 339.5C77.5713 336.462 77.5713 331.538 82.8325 328.5L81.1005 327.5Z" fill="white"/>
<path d="M223.967 340C218.227 336.686 218.227 331.314 223.967 328L258.608 308C264.347 304.686 273.653 304.686 279.392 308L314.033 328C319.773 331.314 319.773 336.686 314.033 340L279.392 360C273.653 363.314 264.347 363.314 258.608 360L223.967 340Z" fill="#D6E4F7"/>
<path d="M224.833 328.5L259.474 308.5L257.742 307.5L223.1 327.5L224.833 328.5ZM278.526 308.5L313.167 328.5L314.899 327.5L280.258 307.5L278.526 308.5ZM313.167 339.5L278.526 359.5L280.258 360.5L314.899 340.5L313.167 339.5ZM259.474 359.5L224.833 339.5L223.1 340.5L257.742 360.5L259.474 359.5ZM278.526 359.5C273.265 362.538 264.735 362.538 259.474 359.5L257.742 360.5C263.959 364.09 274.04 364.09 280.258 360.5L278.526 359.5ZM313.167 328.5C318.428 331.538 318.428 336.462 313.167 339.5L314.899 340.5C321.117 336.91 321.117 331.09 314.899 327.5L313.167 328.5ZM259.474 308.5C264.735 305.462 273.265 305.462 278.526 308.5L280.258 307.5C274.04 303.91 263.959 303.91 257.742 307.5L259.474 308.5ZM223.1 327.5C216.883 331.09 216.883 336.91 223.1 340.5L224.833 339.5C219.571 336.462 219.571 331.538 224.833 328.5L223.1 327.5Z" fill="white"/>
<g filter="url(#filter26_d_2581_3621)">
<rect width="64" height="64" rx="12" transform="matrix(0.866025 -0.5 0.866025 0.5 355.574 334)" fill="#D6E4F7"/>
</g>
<g filter="url(#filter27_ii_2581_3621)">
<path fill-rule="evenodd" clip-rule="evenodd" d="M361.664 333.858C361.6 336.076 363.034 338.307 365.967 340L400.608 360C406.347 363.314 415.653 363.314 421.392 360L456.033 340C458.903 338.343 460.338 336.172 460.338 334H460.34V332H459.926C459.313 330.534 458.015 329.144 456.033 328L421.392 308C415.653 304.686 406.347 304.686 400.608 308L365.967 328C363.985 329.144 362.687 330.534 362.074 332H361.664L361.664 333.858Z" fill="url(#paint23_linear_2581_3621)"/>
</g>
<path d="M365.967 338C360.227 334.686 360.227 329.314 365.967 326L400.608 306C406.347 302.686 415.653 302.686 421.392 306L456.033 326C461.773 329.314 461.773 334.686 456.033 338L421.392 358C415.653 361.314 406.347 361.314 400.608 358L365.967 338Z" fill="white"/>
<g clip-path="url(#clip13_2581_3621)">
<path d="M416.775 327.706L420.23 329.701L419.128 330.338L415.131 328.03L416.775 327.706Z" fill="#F37368"/>
<path d="M403.989 338.337L405.542 338.279L407.193 335.211L405.96 334.914L403.989 338.337ZM416.26 328.682L417.593 326.216L416.291 326.013L415.131 328.03L416.26 328.682Z" fill="#F7A199"/>
<path d="M407.518 332.738L411.244 334.889L410.187 335.499L404.877 332.433L407.518 332.738ZM403.989 338.337L405.542 338.279L403.115 335.04L401.226 334.541L403.989 338.337Z" fill="#F37368"/>
<path d="M401.226 334.541L402.313 333.914L409.636 335.817L408.519 336.463L401.226 334.541ZM406.094 331.731L412.039 332.485L413.724 333.458L404.877 332.433L406.094 331.731ZM410.403 329.243L411.498 328.611L416.808 331.677L415.714 332.309L410.403 329.243ZM414.791 327.834L413.107 328.806L412.133 328.244L416.06 325.977L417.593 326.216L415.893 327.198L414.791 327.834Z" fill="#F04939"/>
<path d="M423.15 325.686L425.167 326.851L424.08 327.478L422.063 326.313" fill="#F7A199"/>
<path d="M420.607 323.352L422.063 326.314L423.15 325.686L421.763 322.684L420.607 323.352Z" fill="#F04939"/>
<path d="M422.063 326.313L416.871 325.508L418.065 324.819L421.601 325.384L422.063 326.313Z" fill="#F37368"/>
<path d="M395.858 338.354C396.593 338.778 397.485 338.772 398.62 338.384L399.801 337.961C400.859 337.582 401.875 337.567 402.678 338.031C403.034 338.228 403.259 338.491 403.331 338.771C402.527 338.306 401.681 338.295 400.43 338.713L399.273 339.132C398.345 339.471 397.353 339.571 396.48 339.066C396.147 338.875 395.922 338.621 395.858 338.354Z" fill="#F04939"/>
<path d="M411.768 332.328L408.413 330.392L409.47 329.782L414.78 332.848L413.724 333.458L411.768 332.328Z" fill="#F37368"/>
<path d="M401.574 338.437C402.243 338.354 402.798 338.463 403.331 338.771C403.427 339.224 403.077 339.702 402.381 340.105C401.21 340.781 399.788 340.923 398.599 340.44L399.724 339.791C400.334 339.974 400.933 339.878 401.453 339.578C402.081 339.224 402.162 338.785 401.574 338.437ZM395.851 338.35C395.747 337.91 396.051 337.431 396.74 337.033C397.941 336.339 399.272 336.312 400.344 336.728L399.258 337.356C398.779 337.221 398.203 337.233 397.659 337.547C397.078 337.891 397.02 338.317 397.538 338.643C396.924 338.744 396.284 338.617 395.851 338.35Z" fill="#F37368"/>
</g>
<path d="M366.4 326.25L401.041 306.25L400.175 305.75L365.534 325.75L366.4 326.25ZM420.959 306.25L455.6 326.25L456.466 325.75L421.825 305.75L420.959 306.25ZM455.6 337.75L420.959 357.75L421.825 358.25L456.466 338.25L455.6 337.75ZM401.041 357.75L366.4 337.75L365.534 338.25L400.175 358.25L401.041 357.75ZM420.959 357.75C415.459 360.926 406.541 360.926 401.041 357.75L400.175 358.25C406.153 361.702 415.847 361.702 421.825 358.25L420.959 357.75ZM455.6 326.25C461.101 329.426 461.101 334.574 455.6 337.75L456.466 338.25C462.445 334.798 462.445 329.202 456.466 325.75L455.6 326.25ZM401.041 306.25C406.541 303.074 415.459 303.074 420.959 306.25L421.825 305.75C415.847 302.298 406.153 302.298 400.175 305.75L401.041 306.25ZM365.534 325.75C359.555 329.202 359.555 334.798 365.534 338.25L366.4 337.75C360.899 334.574 360.899 329.426 366.4 326.25L365.534 325.75Z" fill="#D6E4F7"/>
<defs>
<filter id="filter0_d_2581_3621" x="209.574" y="54" width="118.851" height="72" filterUnits="userSpaceOnUse" color-interpolation-filters="sRGB">
<feFlood flood-opacity="0" result="BackgroundImageFix"/>
<feColorMatrix in="SourceAlpha" type="matrix" values="0 0 0 0 0 0 0 0 0 0 0 0 0 0 0 0 0 0 127 0" result="hardAlpha"/>
<feOffset dy="2"/>
<feGaussianBlur stdDeviation="2"/>
<feColorMatrix type="matrix" values="0 0 0 0 0.443137 0 0 0 0 0.529412 0 0 0 0 0.647059 0 0 0 1 0"/>
<feBlend mode="normal" in2="BackgroundImageFix" result="effect1_dropShadow_2581_3621"/>
<feBlend mode="normal" in="SourceGraphic" in2="effect1_dropShadow_2581_3621" result="shape"/>
</filter>
<filter id="filter1_ii_2581_3621" x="189.662" y="29.5146" width="128.678" height="86.9705" filterUnits="userSpaceOnUse" color-interpolation-filters="sRGB">
<feFlood flood-opacity="0" result="BackgroundImageFix"/>
<feBlend mode="normal" in="SourceGraphic" in2="BackgroundImageFix" result="shape"/>
<feColorMatrix in="SourceAlpha" type="matrix" values="0 0 0 0 0 0 0 0 0 0 0 0 0 0 0 0 0 0 127 0" result="hardAlpha"/>
<feOffset dx="-30" dy="-40"/>
<feGaussianBlur stdDeviation="15"/>
<feComposite in2="hardAlpha" operator="arithmetic" k2="-1" k3="1"/>
<feColorMatrix type="matrix" values="0 0 0 0 0.439216 0 0 0 0 0.529412 0 0 0 0 0.647059 0 0 0 0.3 0"/>
<feBlend mode="normal" in2="shape" result="effect1_innerShadow_2581_3621"/>
<feColorMatrix in="SourceAlpha" type="matrix" values="0 0 0 0 0 0 0 0 0 0 0 0 0 0 0 0 0 0 127 0" result="hardAlpha"/>
<feOffset dy="-10"/>
<feGaussianBlur stdDeviation="10"/>
<feComposite in2="hardAlpha" operator="arithmetic" k2="-1" k3="1"/>
<feColorMatrix type="matrix" values="0 0 0 0 1 0 0 0 0 1 0 0 0 0 1 0 0 0 0.55 0"/>
<feBlend mode="normal" in2="effect1_innerShadow_2581_3621" result="effect2_innerShadow_2581_3621"/>
</filter>
<filter id="filter2_d_2581_3621" x="-3.42566" y="95" width="118.851" height="72" filterUnits="userSpaceOnUse" color-interpolation-filters="sRGB">
<feFlood flood-opacity="0" result="BackgroundImageFix"/>
<feColorMatrix in="SourceAlpha" type="matrix" values="0 0 0 0 0 0 0 0 0 0 0 0 0 0 0 0 0 0 127 0" result="hardAlpha"/>
<feOffset dy="2"/>
<feGaussianBlur stdDeviation="2"/>
<feColorMatrix type="matrix" values="0 0 0 0 0.443137 0 0 0 0 0.529412 0 0 0 0 0.647059 0 0 0 1 0"/>
<feBlend mode="normal" in2="BackgroundImageFix" result="effect1_dropShadow_2581_3621"/>
<feBlend mode="normal" in="SourceGraphic" in2="effect1_dropShadow_2581_3621" result="shape"/>
</filter>
<filter id="filter3_ii_2581_3621" x="-23.3379" y="70.5146" width="128.678" height="86.9705" filterUnits="userSpaceOnUse" color-interpolation-filters="sRGB">
<feFlood flood-opacity="0" result="BackgroundImageFix"/>
<feBlend mode="normal" in="SourceGraphic" in2="BackgroundImageFix" result="shape"/>
<feColorMatrix in="SourceAlpha" type="matrix" values="0 0 0 0 0 0 0 0 0 0 0 0 0 0 0 0 0 0 127 0" result="hardAlpha"/>
<feOffset dx="-30" dy="-40"/>
<feGaussianBlur stdDeviation="15"/>
<feComposite in2="hardAlpha" operator="arithmetic" k2="-1" k3="1"/>
<feColorMatrix type="matrix" values="0 0 0 0 0.439216 0 0 0 0 0.529412 0 0 0 0 0.647059 0 0 0 0.3 0"/>
<feBlend mode="normal" in2="shape" result="effect1_innerShadow_2581_3621"/>
<feColorMatrix in="SourceAlpha" type="matrix" values="0 0 0 0 0 0 0 0 0 0 0 0 0 0 0 0 0 0 127 0" result="hardAlpha"/>
<feOffset dy="-10"/>
<feGaussianBlur stdDeviation="10"/>
<feComposite in2="hardAlpha" operator="arithmetic" k2="-1" k3="1"/>
<feColorMatrix type="matrix" values="0 0 0 0 1 0 0 0 0 1 0 0 0 0 1 0 0 0 0.55 0"/>
<feBlend mode="normal" in2="effect1_innerShadow_2581_3621" result="effect2_innerShadow_2581_3621"/>
</filter>
<filter id="filter4_d_2581_3621" x="138.574" y="95" width="118.851" height="72" filterUnits="userSpaceOnUse" color-interpolation-filters="sRGB">
<feFlood flood-opacity="0" result="BackgroundImageFix"/>
<feColorMatrix in="SourceAlpha" type="matrix" values="0 0 0 0 0 0 0 0 0 0 0 0 0 0 0 0 0 0 127 0" result="hardAlpha"/>
<feOffset dy="2"/>
<feGaussianBlur stdDeviation="2"/>
<feColorMatrix type="matrix" values="0 0 0 0 0.443137 0 0 0 0 0.529412 0 0 0 0 0.647059 0 0 0 1 0"/>
<feBlend mode="normal" in2="BackgroundImageFix" result="effect1_dropShadow_2581_3621"/>
<feBlend mode="normal" in="SourceGraphic" in2="effect1_dropShadow_2581_3621" result="shape"/>
</filter>
<filter id="filter5_ii_2581_3621" x="118.662" y="37" width="128.678" height="120.485" filterUnits="userSpaceOnUse" color-interpolation-filters="sRGB">
<feFlood flood-opacity="0" result="BackgroundImageFix"/>
<feBlend mode="normal" in="SourceGraphic" in2="BackgroundImageFix" result="shape"/>
<feColorMatrix in="SourceAlpha" type="matrix" values="0 0 0 0 0 0 0 0 0 0 0 0 0 0 0 0 0 0 127 0" result="hardAlpha"/>
<feOffset dx="-30" dy="-40"/>
<feGaussianBlur stdDeviation="15"/>
<feComposite in2="hardAlpha" operator="arithmetic" k2="-1" k3="1"/>
<feColorMatrix type="matrix" values="0 0 0 0 0.439216 0 0 0 0 0.529412 0 0 0 0 0.647059 0 0 0 0.3 0"/>
<feBlend mode="normal" in2="shape" result="effect1_innerShadow_2581_3621"/>
<feColorMatrix in="SourceAlpha" type="matrix" values="0 0 0 0 0 0 0 0 0 0 0 0 0 0 0 0 0 0 127 0" result="hardAlpha"/>
<feOffset dy="-10"/>
<feGaussianBlur stdDeviation="10"/>
<feComposite in2="hardAlpha" operator="arithmetic" k2="-1" k3="1"/>
<feColorMatrix type="matrix" values="0 0 0 0 1 0 0 0 0 1 0 0 0 0 1 0 0 0 0.55 0"/>
<feBlend mode="normal" in2="effect1_innerShadow_2581_3621" result="effect2_innerShadow_2581_3621"/>
</filter>
<filter id="filter6_d_2581_3621" x="422.574" y="95" width="118.851" height="72" filterUnits="userSpaceOnUse" color-interpolation-filters="sRGB">
<feFlood flood-opacity="0" result="BackgroundImageFix"/>
<feColorMatrix in="SourceAlpha" type="matrix" values="0 0 0 0 0 0 0 0 0 0 0 0 0 0 0 0 0 0 127 0" result="hardAlpha"/>
<feOffset dy="2"/>
<feGaussianBlur stdDeviation="2"/>
<feColorMatrix type="matrix" values="0 0 0 0 0.443137 0 0 0 0 0.529412 0 0 0 0 0.647059 0 0 0 1 0"/>
<feBlend mode="normal" in2="BackgroundImageFix" result="effect1_dropShadow_2581_3621"/>
<feBlend mode="normal" in="SourceGraphic" in2="effect1_dropShadow_2581_3621" result="shape"/>
</filter>
<filter id="filter7_ii_2581_3621" x="402.662" y="70.5146" width="128.678" height="86.9705" filterUnits="userSpaceOnUse" color-interpolation-filters="sRGB">
<feFlood flood-opacity="0" result="BackgroundImageFix"/>
<feBlend mode="normal" in="SourceGraphic" in2="BackgroundImageFix" result="shape"/>
<feColorMatrix in="SourceAlpha" type="matrix" values="0 0 0 0 0 0 0 0 0 0 0 0 0 0 0 0 0 0 127 0" result="hardAlpha"/>
<feOffset dx="-30" dy="-40"/>
<feGaussianBlur stdDeviation="15"/>
<feComposite in2="hardAlpha" operator="arithmetic" k2="-1" k3="1"/>
<feColorMatrix type="matrix" values="0 0 0 0 0.439216 0 0 0 0 0.529412 0 0 0 0 0.647059 0 0 0 0.3 0"/>
<feBlend mode="normal" in2="shape" result="effect1_innerShadow_2581_3621"/>
<feColorMatrix in="SourceAlpha" type="matrix" values="0 0 0 0 0 0 0 0 0 0 0 0 0 0 0 0 0 0 127 0" result="hardAlpha"/>
<feOffset dy="-10"/>
<feGaussianBlur stdDeviation="10"/>
<feComposite in2="hardAlpha" operator="arithmetic" k2="-1" k3="1"/>
<feColorMatrix type="matrix" values="0 0 0 0 1 0 0 0 0 1 0 0 0 0 1 0 0 0 0.55 0"/>
<feBlend mode="normal" in2="effect1_innerShadow_2581_3621" result="effect2_innerShadow_2581_3621"/>
</filter>
<filter id="filter8_d_2581_3621" x="67.5742" y="136" width="118.851" height="72" filterUnits="userSpaceOnUse" color-interpolation-filters="sRGB">
<feFlood flood-opacity="0" result="BackgroundImageFix"/>
<feColorMatrix in="SourceAlpha" type="matrix" values="0 0 0 0 0 0 0 0 0 0 0 0 0 0 0 0 0 0 127 0" result="hardAlpha"/>
<feOffset dy="2"/>
<feGaussianBlur stdDeviation="2"/>
<feColorMatrix type="matrix" values="0 0 0 0 0.443137 0 0 0 0 0.529412 0 0 0 0 0.647059 0 0 0 1 0"/>
<feBlend mode="normal" in2="BackgroundImageFix" result="effect1_dropShadow_2581_3621"/>
<feBlend mode="normal" in="SourceGraphic" in2="effect1_dropShadow_2581_3621" result="shape"/>
</filter>
<filter id="filter9_ii_2581_3621" x="47.6621" y="111.515" width="128.678" height="86.9705" filterUnits="userSpaceOnUse" color-interpolation-filters="sRGB">
<feFlood flood-opacity="0" result="BackgroundImageFix"/>
<feBlend mode="normal" in="SourceGraphic" in2="BackgroundImageFix" result="shape"/>
<feColorMatrix in="SourceAlpha" type="matrix" values="0 0 0 0 0 0 0 0 0 0 0 0 0 0 0 0 0 0 127 0" result="hardAlpha"/>
<feOffset dx="-30" dy="-40"/>
<feGaussianBlur stdDeviation="15"/>
<feComposite in2="hardAlpha" operator="arithmetic" k2="-1" k3="1"/>
<feColorMatrix type="matrix" values="0 0 0 0 0.439216 0 0 0 0 0.529412 0 0 0 0 0.647059 0 0 0 0.3 0"/>
<feBlend mode="normal" in2="shape" result="effect1_innerShadow_2581_3621"/>
<feColorMatrix in="SourceAlpha" type="matrix" values="0 0 0 0 0 0 0 0 0 0 0 0 0 0 0 0 0 0 127 0" result="hardAlpha"/>
<feOffset dy="-10"/>
<feGaussianBlur stdDeviation="10"/>
<feComposite in2="hardAlpha" operator="arithmetic" k2="-1" k3="1"/>
<feColorMatrix type="matrix" values="0 0 0 0 1 0 0 0 0 1 0 0 0 0 1 0 0 0 0.55 0"/>
<feBlend mode="normal" in2="effect1_innerShadow_2581_3621" result="effect2_innerShadow_2581_3621"/>
</filter>
<filter id="filter10_d_2581_3621" x="351.574" y="136" width="118.851" height="72" filterUnits="userSpaceOnUse" color-interpolation-filters="sRGB">
<feFlood flood-opacity="0" result="BackgroundImageFix"/>
<feColorMatrix in="SourceAlpha" type="matrix" values="0 0 0 0 0 0 0 0 0 0 0 0 0 0 0 0 0 0 127 0" result="hardAlpha"/>
<feOffset dy="2"/>
<feGaussianBlur stdDeviation="2"/>
<feColorMatrix type="matrix" values="0 0 0 0 0.443137 0 0 0 0 0.529412 0 0 0 0 0.647059 0 0 0 1 0"/>
<feBlend mode="normal" in2="BackgroundImageFix" result="effect1_dropShadow_2581_3621"/>
<feBlend mode="normal" in="SourceGraphic" in2="effect1_dropShadow_2581_3621" result="shape"/>
</filter>
<filter id="filter11_ii_2581_3621" x="331.662" y="78" width="128.678" height="120.485" filterUnits="userSpaceOnUse" color-interpolation-filters="sRGB">
<feFlood flood-opacity="0" result="BackgroundImageFix"/>
<feBlend mode="normal" in="SourceGraphic" in2="BackgroundImageFix" result="shape"/>
<feColorMatrix in="SourceAlpha" type="matrix" values="0 0 0 0 0 0 0 0 0 0 0 0 0 0 0 0 0 0 127 0" result="hardAlpha"/>
<feOffset dx="-30" dy="-40"/>
<feGaussianBlur stdDeviation="15"/>
<feComposite in2="hardAlpha" operator="arithmetic" k2="-1" k3="1"/>
<feColorMatrix type="matrix" values="0 0 0 0 0.439216 0 0 0 0 0.529412 0 0 0 0 0.647059 0 0 0 0.3 0"/>
<feBlend mode="normal" in2="shape" result="effect1_innerShadow_2581_3621"/>
<feColorMatrix in="SourceAlpha" type="matrix" values="0 0 0 0 0 0 0 0 0 0 0 0 0 0 0 0 0 0 127 0" result="hardAlpha"/>
<feOffset dy="-10"/>
<feGaussianBlur stdDeviation="10"/>
<feComposite in2="hardAlpha" operator="arithmetic" k2="-1" k3="1"/>
<feColorMatrix type="matrix" values="0 0 0 0 1 0 0 0 0 1 0 0 0 0 1 0 0 0 0.55 0"/>
<feBlend mode="normal" in2="effect1_innerShadow_2581_3621" result="effect2_innerShadow_2581_3621"/>
</filter>
<filter id="filter12_d_2581_3621" x="422.574" y="177" width="118.851" height="72" filterUnits="userSpaceOnUse" color-interpolation-filters="sRGB">
<feFlood flood-opacity="0" result="BackgroundImageFix"/>
<feColorMatrix in="SourceAlpha" type="matrix" values="0 0 0 0 0 0 0 0 0 0 0 0 0 0 0 0 0 0 127 0" result="hardAlpha"/>
<feOffset dy="2"/>
<feGaussianBlur stdDeviation="2"/>
<feColorMatrix type="matrix" values="0 0 0 0 0.443137 0 0 0 0 0.529412 0 0 0 0 0.647059 0 0 0 1 0"/>
<feBlend mode="normal" in2="BackgroundImageFix" result="effect1_dropShadow_2581_3621"/>
<feBlend mode="normal" in="SourceGraphic" in2="effect1_dropShadow_2581_3621" result="shape"/>
</filter>
<filter id="filter13_ii_2581_3621" x="402.662" y="152.515" width="128.678" height="86.9706" filterUnits="userSpaceOnUse" color-interpolation-filters="sRGB">
<feFlood flood-opacity="0" result="BackgroundImageFix"/>
<feBlend mode="normal" in="SourceGraphic" in2="BackgroundImageFix" result="shape"/>
<feColorMatrix in="SourceAlpha" type="matrix" values="0 0 0 0 0 0 0 0 0 0 0 0 0 0 0 0 0 0 127 0" result="hardAlpha"/>
<feOffset dx="-30" dy="-40"/>
<feGaussianBlur stdDeviation="15"/>
<feComposite in2="hardAlpha" operator="arithmetic" k2="-1" k3="1"/>
<feColorMatrix type="matrix" values="0 0 0 0 0.439216 0 0 0 0 0.529412 0 0 0 0 0.647059 0 0 0 0.3 0"/>
<feBlend mode="normal" in2="shape" result="effect1_innerShadow_2581_3621"/>
<feColorMatrix in="SourceAlpha" type="matrix" values="0 0 0 0 0 0 0 0 0 0 0 0 0 0 0 0 0 0 127 0" result="hardAlpha"/>
<feOffset dy="-10"/>
<feGaussianBlur stdDeviation="10"/>
<feComposite in2="hardAlpha" operator="arithmetic" k2="-1" k3="1"/>
<feColorMatrix type="matrix" values="0 0 0 0 1 0 0 0 0 1 0 0 0 0 1 0 0 0 0.55 0"/>
<feBlend mode="normal" in2="effect1_innerShadow_2581_3621" result="effect2_innerShadow_2581_3621"/>
</filter>
<filter id="filter14_d_2581_3621" x="150.149" y="147" width="229.702" height="136" filterUnits="userSpaceOnUse" color-interpolation-filters="sRGB">
<feFlood flood-opacity="0" result="BackgroundImageFix"/>
<feColorMatrix in="SourceAlpha" type="matrix" values="0 0 0 0 0 0 0 0 0 0 0 0 0 0 0 0 0 0 127 0" result="hardAlpha"/>
<feOffset dy="2"/>
<feGaussianBlur stdDeviation="2"/>
<feColorMatrix type="matrix" values="0 0 0 0 0.443137 0 0 0 0 0.529412 0 0 0 0 0.647059 0 0 0 1 0"/>
<feBlend mode="normal" in2="BackgroundImageFix" result="effect1_dropShadow_2581_3621"/>
<feBlend mode="normal" in="SourceGraphic" in2="effect1_dropShadow_2581_3621" result="shape"/>
</filter>
<filter id="filter15_ii_2581_3621" x="136.324" y="126.03" width="227.356" height="143.941" filterUnits="userSpaceOnUse" color-interpolation-filters="sRGB">
<feFlood flood-opacity="0" result="BackgroundImageFix"/>
<feBlend mode="normal" in="SourceGraphic" in2="BackgroundImageFix" result="shape"/>
<feColorMatrix in="SourceAlpha" type="matrix" values="0 0 0 0 0 0 0 0 0 0 0 0 0 0 0 0 0 0 127 0" result="hardAlpha"/>
<feOffset dx="-30" dy="-40"/>
<feGaussianBlur stdDeviation="15"/>
<feComposite in2="hardAlpha" operator="arithmetic" k2="-1" k3="1"/>
<feColorMatrix type="matrix" values="0 0 0 0 0.439216 0 0 0 0 0.529412 0 0 0 0 0.647059 0 0 0 0.3 0"/>
<feBlend mode="normal" in2="shape" result="effect1_innerShadow_2581_3621"/>
<feColorMatrix in="SourceAlpha" type="matrix" values="0 0 0 0 0 0 0 0 0 0 0 0 0 0 0 0 0 0 127 0" result="hardAlpha"/>
<feOffset dy="-10"/>
<feGaussianBlur stdDeviation="10"/>
<feComposite in2="hardAlpha" operator="arithmetic" k2="-1" k3="1"/>
<feColorMatrix type="matrix" values="0 0 0 0 1 0 0 0 0 1 0 0 0 0 1 0 0 0 0.55 0"/>
<feBlend mode="normal" in2="effect1_innerShadow_2581_3621" result="effect2_innerShadow_2581_3621"/>
</filter>
<filter id="filter16_d_2581_3621" x="67.5742" y="218" width="118.851" height="72" filterUnits="userSpaceOnUse" color-interpolation-filters="sRGB">
<feFlood flood-opacity="0" result="BackgroundImageFix"/>
<feColorMatrix in="SourceAlpha" type="matrix" values="0 0 0 0 0 0 0 0 0 0 0 0 0 0 0 0 0 0 127 0" result="hardAlpha"/>
<feOffset dy="2"/>
<feGaussianBlur stdDeviation="2"/>
<feColorMatrix type="matrix" values="0 0 0 0 0.443137 0 0 0 0 0.529412 0 0 0 0 0.647059 0 0 0 1 0"/>
<feBlend mode="normal" in2="BackgroundImageFix" result="effect1_dropShadow_2581_3621"/>
<feBlend mode="normal" in="SourceGraphic" in2="effect1_dropShadow_2581_3621" result="shape"/>
</filter>
<filter id="filter17_ii_2581_3621" x="47.6621" y="160" width="128.678" height="120.485" filterUnits="userSpaceOnUse" color-interpolation-filters="sRGB">
<feFlood flood-opacity="0" result="BackgroundImageFix"/>
<feBlend mode="normal" in="SourceGraphic" in2="BackgroundImageFix" result="shape"/>
<feColorMatrix in="SourceAlpha" type="matrix" values="0 0 0 0 0 0 0 0 0 0 0 0 0 0 0 0 0 0 127 0" result="hardAlpha"/>
<feOffset dx="-30" dy="-40"/>
<feGaussianBlur stdDeviation="15"/>
<feComposite in2="hardAlpha" operator="arithmetic" k2="-1" k3="1"/>
<feColorMatrix type="matrix" values="0 0 0 0 0.439216 0 0 0 0 0.529412 0 0 0 0 0.647059 0 0 0 0.3 0"/>
<feBlend mode="normal" in2="shape" result="effect1_innerShadow_2581_3621"/>
<feColorMatrix in="SourceAlpha" type="matrix" values="0 0 0 0 0 0 0 0 0 0 0 0 0 0 0 0 0 0 127 0" result="hardAlpha"/>
<feOffset dy="-10"/>
<feGaussianBlur stdDeviation="10"/>
<feComposite in2="hardAlpha" operator="arithmetic" k2="-1" k3="1"/>
<feColorMatrix type="matrix" values="0 0 0 0 1 0 0 0 0 1 0 0 0 0 1 0 0 0 0.55 0"/>
<feBlend mode="normal" in2="effect1_innerShadow_2581_3621" result="effect2_innerShadow_2581_3621"/>
</filter>
<filter id="filter18_d_2581_3621" x="351.574" y="218" width="118.851" height="72" filterUnits="userSpaceOnUse" color-interpolation-filters="sRGB">
<feFlood flood-opacity="0" result="BackgroundImageFix"/>
<feColorMatrix in="SourceAlpha" type="matrix" values="0 0 0 0 0 0 0 0 0 0 0 0 0 0 0 0 0 0 127 0" result="hardAlpha"/>
<feOffset dy="2"/>
<feGaussianBlur stdDeviation="2"/>
<feColorMatrix type="matrix" values="0 0 0 0 0.443137 0 0 0 0 0.529412 0 0 0 0 0.647059 0 0 0 1 0"/>
<feBlend mode="normal" in2="BackgroundImageFix" result="effect1_dropShadow_2581_3621"/>
<feBlend mode="normal" in="SourceGraphic" in2="effect1_dropShadow_2581_3621" result="shape"/>
</filter>
<filter id="filter19_ii_2581_3621" x="331.662" y="193.515" width="128.678" height="86.9706" filterUnits="userSpaceOnUse" color-interpolation-filters="sRGB">
<feFlood flood-opacity="0" result="BackgroundImageFix"/>
<feBlend mode="normal" in="SourceGraphic" in2="BackgroundImageFix" result="shape"/>
<feColorMatrix in="SourceAlpha" type="matrix" values="0 0 0 0 0 0 0 0 0 0 0 0 0 0 0 0 0 0 127 0" result="hardAlpha"/>
<feOffset dx="-30" dy="-40"/>
<feGaussianBlur stdDeviation="15"/>
<feComposite in2="hardAlpha" operator="arithmetic" k2="-1" k3="1"/>
<feColorMatrix type="matrix" values="0 0 0 0 0.439216 0 0 0 0 0.529412 0 0 0 0 0.647059 0 0 0 0.3 0"/>
<feBlend mode="normal" in2="shape" result="effect1_innerShadow_2581_3621"/>
<feColorMatrix in="SourceAlpha" type="matrix" values="0 0 0 0 0 0 0 0 0 0 0 0 0 0 0 0 0 0 127 0" result="hardAlpha"/>
<feOffset dy="-10"/>
<feGaussianBlur stdDeviation="10"/>
<feComposite in2="hardAlpha" operator="arithmetic" k2="-1" k3="1"/>
<feColorMatrix type="matrix" values="0 0 0 0 1 0 0 0 0 1 0 0 0 0 1 0 0 0 0.55 0"/>
<feBlend mode="normal" in2="effect1_innerShadow_2581_3621" result="effect2_innerShadow_2581_3621"/>
</filter>
<filter id="filter20_d_2581_3621" x="-3.42566" y="259" width="118.851" height="72" filterUnits="userSpaceOnUse" color-interpolation-filters="sRGB">
<feFlood flood-opacity="0" result="BackgroundImageFix"/>
<feColorMatrix in="SourceAlpha" type="matrix" values="0 0 0 0 0 0 0 0 0 0 0 0 0 0 0 0 0 0 127 0" result="hardAlpha"/>
<feOffset dy="2"/>
<feGaussianBlur stdDeviation="2"/>
<feColorMatrix type="matrix" values="0 0 0 0 0.443137 0 0 0 0 0.529412 0 0 0 0 0.647059 0 0 0 1 0"/>
<feBlend mode="normal" in2="BackgroundImageFix" result="effect1_dropShadow_2581_3621"/>
<feBlend mode="normal" in="SourceGraphic" in2="effect1_dropShadow_2581_3621" result="shape"/>
</filter>
<filter id="filter21_ii_2581_3621" x="-23.3379" y="234.515" width="128.678" height="86.9706" filterUnits="userSpaceOnUse" color-interpolation-filters="sRGB">
<feFlood flood-opacity="0" result="BackgroundImageFix"/>
<feBlend mode="normal" in="SourceGraphic" in2="BackgroundImageFix" result="shape"/>
<feColorMatrix in="SourceAlpha" type="matrix" values="0 0 0 0 0 0 0 0 0 0 0 0 0 0 0 0 0 0 127 0" result="hardAlpha"/>
<feOffset dx="-30" dy="-40"/>
<feGaussianBlur stdDeviation="15"/>
<feComposite in2="hardAlpha" operator="arithmetic" k2="-1" k3="1"/>
<feColorMatrix type="matrix" values="0 0 0 0 0.439216 0 0 0 0 0.529412 0 0 0 0 0.647059 0 0 0 0.3 0"/>
<feBlend mode="normal" in2="shape" result="effect1_innerShadow_2581_3621"/>
<feColorMatrix in="SourceAlpha" type="matrix" values="0 0 0 0 0 0 0 0 0 0 0 0 0 0 0 0 0 0 127 0" result="hardAlpha"/>
<feOffset dy="-10"/>
<feGaussianBlur stdDeviation="10"/>
<feComposite in2="hardAlpha" operator="arithmetic" k2="-1" k3="1"/>
<feColorMatrix type="matrix" values="0 0 0 0 1 0 0 0 0 1 0 0 0 0 1 0 0 0 0.55 0"/>
<feBlend mode="normal" in2="effect1_innerShadow_2581_3621" result="effect2_innerShadow_2581_3621"/>
</filter>
<filter id="filter22_d_2581_3621" x="138.574" y="259" width="118.851" height="72" filterUnits="userSpaceOnUse" color-interpolation-filters="sRGB">
<feFlood flood-opacity="0" result="BackgroundImageFix"/>
<feColorMatrix in="SourceAlpha" type="matrix" values="0 0 0 0 0 0 0 0 0 0 0 0 0 0 0 0 0 0 127 0" result="hardAlpha"/>
<feOffset dy="2"/>
<feGaussianBlur stdDeviation="2"/>
<feColorMatrix type="matrix" values="0 0 0 0 0.443137 0 0 0 0 0.529412 0 0 0 0 0.647059 0 0 0 1 0"/>
<feBlend mode="normal" in2="BackgroundImageFix" result="effect1_dropShadow_2581_3621"/>
<feBlend mode="normal" in="SourceGraphic" in2="effect1_dropShadow_2581_3621" result="shape"/>
</filter>
<filter id="filter23_ii_2581_3621" x="118.662" y="234.515" width="128.678" height="86.9706" filterUnits="userSpaceOnUse" color-interpolation-filters="sRGB">
<feFlood flood-opacity="0" result="BackgroundImageFix"/>
<feBlend mode="normal" in="SourceGraphic" in2="BackgroundImageFix" result="shape"/>
<feColorMatrix in="SourceAlpha" type="matrix" values="0 0 0 0 0 0 0 0 0 0 0 0 0 0 0 0 0 0 127 0" result="hardAlpha"/>
<feOffset dx="-30" dy="-40"/>
<feGaussianBlur stdDeviation="15"/>
<feComposite in2="hardAlpha" operator="arithmetic" k2="-1" k3="1"/>
<feColorMatrix type="matrix" values="0 0 0 0 0.439216 0 0 0 0 0.529412 0 0 0 0 0.647059 0 0 0 0.3 0"/>
<feBlend mode="normal" in2="shape" result="effect1_innerShadow_2581_3621"/>
<feColorMatrix in="SourceAlpha" type="matrix" values="0 0 0 0 0 0 0 0 0 0 0 0 0 0 0 0 0 0 127 0" result="hardAlpha"/>
<feOffset dy="-10"/>
<feGaussianBlur stdDeviation="10"/>
<feComposite in2="hardAlpha" operator="arithmetic" k2="-1" k3="1"/>
<feColorMatrix type="matrix" values="0 0 0 0 1 0 0 0 0 1 0 0 0 0 1 0 0 0 0.55 0"/>
<feBlend mode="normal" in2="effect1_innerShadow_2581_3621" result="effect2_innerShadow_2581_3621"/>
</filter>
<filter id="filter24_d_2581_3621" x="280.574" y="259" width="118.851" height="72" filterUnits="userSpaceOnUse" color-interpolation-filters="sRGB">
<feFlood flood-opacity="0" result="BackgroundImageFix"/>
<feColorMatrix in="SourceAlpha" type="matrix" values="0 0 0 0 0 0 0 0 0 0 0 0 0 0 0 0 0 0 127 0" result="hardAlpha"/>
<feOffset dy="2"/>
<feGaussianBlur stdDeviation="2"/>
<feColorMatrix type="matrix" values="0 0 0 0 0.443137 0 0 0 0 0.529412 0 0 0 0 0.647059 0 0 0 1 0"/>
<feBlend mode="normal" in2="BackgroundImageFix" result="effect1_dropShadow_2581_3621"/>
<feBlend mode="normal" in="SourceGraphic" in2="effect1_dropShadow_2581_3621" result="shape"/>
</filter>
<filter id="filter25_ii_2581_3621" x="260.662" y="234.515" width="128.678" height="86.9706" filterUnits="userSpaceOnUse" color-interpolation-filters="sRGB">
<feFlood flood-opacity="0" result="BackgroundImageFix"/>
<feBlend mode="normal" in="SourceGraphic" in2="BackgroundImageFix" result="shape"/>
<feColorMatrix in="SourceAlpha" type="matrix" values="0 0 0 0 0 0 0 0 0 0 0 0 0 0 0 0 0 0 127 0" result="hardAlpha"/>
<feOffset dx="-30" dy="-40"/>
<feGaussianBlur stdDeviation="15"/>
<feComposite in2="hardAlpha" operator="arithmetic" k2="-1" k3="1"/>
<feColorMatrix type="matrix" values="0 0 0 0 0.439216 0 0 0 0 0.529412 0 0 0 0 0.647059 0 0 0 0.3 0"/>
<feBlend mode="normal" in2="shape" result="effect1_innerShadow_2581_3621"/>
<feColorMatrix in="SourceAlpha" type="matrix" values="0 0 0 0 0 0 0 0 0 0 0 0 0 0 0 0 0 0 127 0" result="hardAlpha"/>
<feOffset dy="-10"/>
<feGaussianBlur stdDeviation="10"/>
<feComposite in2="hardAlpha" operator="arithmetic" k2="-1" k3="1"/>
<feColorMatrix type="matrix" values="0 0 0 0 1 0 0 0 0 1 0 0 0 0 1 0 0 0 0.55 0"/>
<feBlend mode="normal" in2="effect1_innerShadow_2581_3621" result="effect2_innerShadow_2581_3621"/>
</filter>
<filter id="filter26_d_2581_3621" x="351.574" y="300" width="118.851" height="72" filterUnits="userSpaceOnUse" color-interpolation-filters="sRGB">
<feFlood flood-opacity="0" result="BackgroundImageFix"/>
<feColorMatrix in="SourceAlpha" type="matrix" values="0 0 0 0 0 0 0 0 0 0 0 0 0 0 0 0 0 0 127 0" result="hardAlpha"/>
<feOffset dy="2"/>
<feGaussianBlur stdDeviation="2"/>
<feColorMatrix type="matrix" values="0 0 0 0 0.443137 0 0 0 0 0.529412 0 0 0 0 0.647059 0 0 0 1 0"/>
<feBlend mode="normal" in2="BackgroundImageFix" result="effect1_dropShadow_2581_3621"/>
<feBlend mode="normal" in="SourceGraphic" in2="effect1_dropShadow_2581_3621" result="shape"/>
</filter>
<filter id="filter27_ii_2581_3621" x="331.662" y="275.515" width="128.678" height="86.9706" filterUnits="userSpaceOnUse" color-interpolation-filters="sRGB">
<feFlood flood-opacity="0" result="BackgroundImageFix"/>
<feBlend mode="normal" in="SourceGraphic" in2="BackgroundImageFix" result="shape"/>
<feColorMatrix in="SourceAlpha" type="matrix" values="0 0 0 0 0 0 0 0 0 0 0 0 0 0 0 0 0 0 127 0" result="hardAlpha"/>
<feOffset dx="-30" dy="-40"/>
<feGaussianBlur stdDeviation="15"/>
<feComposite in2="hardAlpha" operator="arithmetic" k2="-1" k3="1"/>
<feColorMatrix type="matrix" values="0 0 0 0 0.439216 0 0 0 0 0.529412 0 0 0 0 0.647059 0 0 0 0.3 0"/>
<feBlend mode="normal" in2="shape" result="effect1_innerShadow_2581_3621"/>
<feColorMatrix in="SourceAlpha" type="matrix" values="0 0 0 0 0 0 0 0 0 0 0 0 0 0 0 0 0 0 127 0" result="hardAlpha"/>
<feOffset dy="-10"/>
<feGaussianBlur stdDeviation="10"/>
<feComposite in2="hardAlpha" operator="arithmetic" k2="-1" k3="1"/>
<feColorMatrix type="matrix" values="0 0 0 0 1 0 0 0 0 1 0 0 0 0 1 0 0 0 0.55 0"/>
<feBlend mode="normal" in2="effect1_innerShadow_2581_3621" result="effect2_innerShadow_2581_3621"/>
</filter>
<linearGradient id="paint0_linear_2581_3621" x1="269" y1="116.028" x2="220" y2="116.028" gradientUnits="userSpaceOnUse">
<stop stop-color="#D6E4F7"/>
<stop offset="1" stop-color="#F1F6FC"/>
</linearGradient>
<linearGradient id="paint1_linear_2581_3621" x1="56" y1="157.028" x2="7" y2="157.028" gradientUnits="userSpaceOnUse">
<stop stop-color="#D6E4F7"/>
<stop offset="1" stop-color="#F1F6FC"/>
</linearGradient>
<linearGradient id="paint2_linear_2581_3621" x1="198" y1="156.759" x2="149" y2="156.759" gradientUnits="userSpaceOnUse">
<stop stop-color="#D6E4F7"/>
<stop offset="1" stop-color="#F1F6FC"/>
</linearGradient>
<linearGradient id="paint3_linear_2581_3621" x1="482" y1="157.028" x2="433" y2="157.028" gradientUnits="userSpaceOnUse">
<stop stop-color="#D6E4F7"/>
<stop offset="1" stop-color="#F1F6FC"/>
</linearGradient>
<linearGradient id="paint4_linear_2581_3621" x1="502.559" y1="129.613" x2="486.328" y2="136.638" gradientUnits="userSpaceOnUse">
<stop stop-color="#DE7747"/>
<stop offset="1" stop-color="#BD3A27"/>
</linearGradient>
<linearGradient id="paint5_linear_2581_3621" x1="479.675" y1="113.7" x2="477.111" y2="126.713" gradientUnits="userSpaceOnUse">
<stop stop-color="#42B5CD"/>
<stop offset="1" stop-color="#237692"/>
</linearGradient>
<linearGradient id="paint6_linear_2581_3621" x1="489.86" y1="122.462" x2="480.311" y2="139.002" gradientUnits="userSpaceOnUse">
<stop stop-color="#385C42"/>
<stop offset="1" stop-color="#11201B"/>
</linearGradient>
<linearGradient id="paint7_linear_2581_3621" x1="127" y1="198.028" x2="78" y2="198.028" gradientUnits="userSpaceOnUse">
<stop stop-color="#D6E4F7"/>
<stop offset="1" stop-color="#F1F6FC"/>
</linearGradient>
<linearGradient id="paint8_linear_2581_3621" x1="411" y1="197.759" x2="362" y2="197.759" gradientUnits="userSpaceOnUse">
<stop stop-color="#D6E4F7"/>
<stop offset="1" stop-color="#F1F6FC"/>
</linearGradient>
<linearGradient id="paint9_linear_2581_3621" x1="482" y1="239.028" x2="433" y2="239.028" gradientUnits="userSpaceOnUse">
<stop stop-color="#D6E4F7"/>
<stop offset="1" stop-color="#F1F6FC"/>
</linearGradient>
<linearGradient id="paint10_linear_2581_3621" x1="265" y1="269.057" x2="167" y2="269.057" gradientUnits="userSpaceOnUse">
<stop stop-color="#D6E4F7"/>
<stop offset="1" stop-color="#F1F6FC"/>
</linearGradient>
<linearGradient id="paint11_linear_2581_3621" x1="154" y1="209" x2="376" y2="209" gradientUnits="userSpaceOnUse">
<stop offset="0.104167" stop-color="#ACC9DA"/>
<stop offset="0.203125" stop-color="#E7AED2"/>
<stop offset="0.317708" stop-color="#FF9ECA"/>
<stop offset="0.479167" stop-color="#6EFFFB"/>
<stop offset="0.536458" stop-color="#BCFFDF"/>
<stop offset="0.692708" stop-color="#FF9FB4"/>
<stop offset="0.918609" stop-color="#ACB8DA"/>
</linearGradient>
<linearGradient id="paint12_linear_2581_3621" x1="184.525" y1="208.599" x2="342.381" y2="196.036" gradientUnits="userSpaceOnUse">
<stop stop-color="#D6E4F7" stop-opacity="0.83"/>
<stop offset="1" stop-color="#D6E4F7" stop-opacity="0.46"/>
</linearGradient>
<linearGradient id="paint13_linear_2581_3621" x1="219.125" y1="214.6" x2="295.392" y2="243.112" gradientUnits="userSpaceOnUse">
<stop offset="0.104167" stop-color="#ACC9DA"/>
<stop offset="0.203125" stop-color="#E7AED2"/>
<stop offset="0.317708" stop-color="#FF9ECA"/>
<stop offset="0.479167" stop-color="#6EFFFB"/>
<stop offset="0.536458" stop-color="#BCFFDF"/>
<stop offset="0.692708" stop-color="#FF9FB4"/>
<stop offset="0.918609" stop-color="#ACB8DA"/>
</linearGradient>
<linearGradient id="paint14_linear_2581_3621" x1="231.723" y1="212.873" x2="289.449" y2="230.029" gradientUnits="userSpaceOnUse">
<stop stop-color="#D6E4F7" stop-opacity="0.83"/>
<stop offset="1" stop-color="#D6E4F7" stop-opacity="0.46"/>
</linearGradient>
<linearGradient id="paint15_linear_2581_3621" x1="154" y1="209" x2="376" y2="209" gradientUnits="userSpaceOnUse">
<stop offset="0.104167" stop-color="#ACC9DA"/>
<stop offset="0.203125" stop-color="#E7AED2"/>
<stop offset="0.317708" stop-color="#FF9ECA"/>
<stop offset="0.479167" stop-color="#6EFFFB"/>
<stop offset="0.536458" stop-color="#BCFFDF"/>
<stop offset="0.692708" stop-color="#FF9FB4"/>
<stop offset="0.918609" stop-color="#ACB8DA"/>
</linearGradient>
<linearGradient id="paint16_linear_2581_3621" x1="184.525" y1="208.599" x2="342.381" y2="196.036" gradientUnits="userSpaceOnUse">
<stop stop-color="#D6E4F7" stop-opacity="0.83"/>
<stop offset="1" stop-color="#D6E4F7" stop-opacity="0.46"/>
</linearGradient>
<linearGradient id="paint17_linear_2581_3621" x1="127" y1="279.759" x2="78" y2="279.759" gradientUnits="userSpaceOnUse">
<stop stop-color="#D6E4F7"/>
<stop offset="1" stop-color="#F1F6FC"/>
</linearGradient>
<linearGradient id="paint18_linear_2581_3621" x1="411" y1="280.028" x2="362" y2="280.028" gradientUnits="userSpaceOnUse">
<stop stop-color="#D6E4F7"/>
<stop offset="1" stop-color="#F1F6FC"/>
</linearGradient>
<linearGradient id="paint19_linear_2581_3621" x1="56" y1="321.028" x2="7" y2="321.028" gradientUnits="userSpaceOnUse">
<stop stop-color="#D6E4F7"/>
<stop offset="1" stop-color="#F1F6FC"/>
</linearGradient>
<linearGradient id="paint20_linear_2581_3621" x1="64.8334" y1="295.9" x2="56.3464" y2="281.2" gradientUnits="userSpaceOnUse">
<stop stop-color="#F0C21A"/>
<stop offset="0.3314" stop-color="#93C94B"/>
<stop offset="0.4859" stop-color="#70C05A"/>
<stop offset="0.7506" stop-color="#12B259"/>
<stop offset="0.903" stop-color="#22AD69"/>
<stop offset="1" stop-color="#22AD69"/>
</linearGradient>
<linearGradient id="paint21_linear_2581_3621" x1="198" y1="321.028" x2="149" y2="321.028" gradientUnits="userSpaceOnUse">
<stop stop-color="#D6E4F7"/>
<stop offset="1" stop-color="#F1F6FC"/>
</linearGradient>
<linearGradient id="paint22_linear_2581_3621" x1="340" y1="321.028" x2="291" y2="321.028" gradientUnits="userSpaceOnUse">
<stop stop-color="#D6E4F7"/>
<stop offset="1" stop-color="#F1F6FC"/>
</linearGradient>
<linearGradient id="paint23_linear_2581_3621" x1="411" y1="362.028" x2="362" y2="362.028" gradientUnits="userSpaceOnUse">
<stop stop-color="#D6E4F7"/>
<stop offset="1" stop-color="#F1F6FC"/>
</linearGradient>
<clipPath id="clip0_2581_3621">
<rect width="32" height="32" fill="white" transform="matrix(0.866025 -0.5 0.866025 0.5 241.287 86)"/>
</clipPath>
<clipPath id="clip1_2581_3621">
<rect width="32" height="32" fill="white" transform="matrix(0.866025 -0.5 0.866025 0.5 28.2871 127)"/>
</clipPath>
<clipPath id="clip2_2581_3621">
<rect width="32" height="32" fill="white" transform="matrix(0.866025 -0.5 0.866025 0.5 170.287 67)"/>
</clipPath>
<clipPath id="clip3_2581_3621">
<rect width="32" height="32" fill="white" transform="matrix(0.866025 -0.5 0.866025 0.5 454.287 127)"/>
</clipPath>
<clipPath id="clip4_2581_3621">
<rect width="32" height="32" fill="white" transform="matrix(0.866025 -0.5 0.866025 0.5 99.2871 148)"/>
</clipPath>
<clipPath id="clip5_2581_3621">
<rect width="32" height="32" fill="white" transform="matrix(0.866025 -0.5 0.866025 0.5 383.287 108)"/>
</clipPath>
<clipPath id="clip6_2581_3621">
<rect width="32" height="32" fill="white" transform="matrix(0.866025 -0.5 0.866025 0.5 454.287 189)"/>
</clipPath>
<clipPath id="clip7_2581_3621">
<rect width="64" height="64" fill="white" transform="matrix(0.866025 -0.5 0.866025 0.5 209.425 209)"/>
</clipPath>
<clipPath id="clip8_2581_3621">
<rect width="32" height="32" fill="white" transform="matrix(0.866025 -0.5 0.866025 0.5 99.2871 190)"/>
</clipPath>
<clipPath id="clip9_2581_3621">
<rect width="32" height="32" fill="white" transform="matrix(0.866025 -0.5 0.866025 0.5 383.287 250)"/>
</clipPath>
<clipPath id="clip10_2581_3621">
<rect width="32" height="32" fill="white" transform="matrix(0.866025 -0.5 0.866025 0.5 28.2871 291)"/>
</clipPath>
<clipPath id="clip11_2581_3621">
<rect width="32" height="32" fill="white" transform="matrix(0.866025 -0.5 0.866025 0.5 170.287 291)"/>
</clipPath>
<clipPath id="clip12_2581_3621">
<rect width="32" height="32" fill="white" transform="matrix(0.866025 -0.5 0.866025 0.5 312.287 291)"/>
</clipPath>
<clipPath id="clip13_2581_3621">
<rect width="32" height="32" fill="white" transform="matrix(0.866025 -0.5 0.866025 0.5 383.287 332)"/>
</clipPath>
</defs>
</svg>
